<?xml version="1.0" encoding="utf-8"?>
<!-- Generator: Adobe Illustrator 18.1.1, SVG Export Plug-In . SVG Version: 6.00 Build 0)  -->
<!DOCTYPE svg PUBLIC "-//W3C//DTD SVG 1.1//EN" "http://www.w3.org/Graphics/SVG/1.1/DTD/svg11.dtd">
<svg version="1.1" id="Layer_1" xmlns="http://www.w3.org/2000/svg" xmlns:xlink="http://www.w3.org/1999/xlink" x="0px" y="0px"
	 viewBox="0 0 1190.6 841.9" enable-background="new 0 0 1190.6 841.9" xml:space="preserve">
<g>
	<path fill="#EC4B27" d="M177,269h-13.2c-0.5,0-0.9-0.4-0.9-0.9v-51.4c0-0.5,0.4-0.9,0.9-0.9h64.6c0.5,0,0.9,0.4,0.9,0.9
		c0,0.5-0.4,0.9-0.9,0.9h-63.7v49.6H177c0.5,0,0.9,0.4,0.9,0.9C177.9,268.6,177.5,269,177,269z"/>
</g>
<g>
	<path fill="#127A97" d="M246.9,269h-54.3c-0.5,0-0.9-0.4-0.9-0.9c0-0.5,0.4-0.9,0.9-0.9H246v-9.3c0-0.5,0.4-0.9,0.9-0.9h11v-29.2
		h-11c-0.5,0-0.9-0.4-0.9-0.9v-9.3H244c-0.5,0-0.9-0.4-0.9-0.9c0-0.5,0.4-0.9,0.9-0.9h2.9c0.5,0,0.9,0.4,0.9,0.9v9.3h11
		c0.5,0,0.9,0.4,0.9,0.9v31.1c0,0.5-0.4,0.9-0.9,0.9h-11v9.3C247.8,268.6,247.4,269,246.9,269z"/>
</g>
<g>
	<path fill="#127A97" d="M246.9,269h-54.3c-0.4,0-0.7-0.2-0.8-0.6s-0.1-0.7,0.2-1l16.8-16.8c0,0,0,0,0,0l34.6-34.6
		c0.2-0.2,0.4-0.3,0.6-0.3h2.9c0.5,0,0.9,0.4,0.9,0.9v51.4C247.8,268.6,247.4,269,246.9,269z M194.8,267.2H246v-49.6h-1.6l-26,26
		c0,0.1,0,0.2,0,0.2v16.7c0,0.5-0.4,0.9-0.9,0.9c-0.5,0-0.9-0.4-0.9-0.9v-15.1l-6.2,6.2v8.9c0,0.5-0.4,0.9-0.9,0.9
		c-0.5,0-0.9-0.4-0.9-0.9v-7L203,259v1.5c0,0.5-0.4,0.9-0.9,0.9c-0.4,0-0.8-0.3-0.9-0.6L194.8,267.2z"/>
</g>
<g>
	<path fill="#127A97" d="M177,269h-13.2c-0.5,0-0.9-0.4-0.9-0.9v-51.4c0-0.5,0.4-0.9,0.9-0.9h64.6c0.4,0,0.7,0.2,0.8,0.6
		c0.1,0.3,0.1,0.7-0.2,1l-26.4,26.4c0,0,0,0,0,0l-25.1,25.1C177.5,268.9,177.2,269,177,269z M164.8,267.2h11.9l9.1-9.1v-33.8
		c0-0.5,0.4-0.9,0.9-0.9c0.5,0,0.9,0.4,0.9,0.9v32l5.5-5.5v-26.5c0-0.5,0.4-0.9,0.9-0.9c0.5,0,0.9,0.4,0.9,0.9v24.7l6.2-6.2v-11.4
		c0-0.5,0.4-0.9,0.9-0.9c0.5,0,0.9,0.4,0.9,0.9v9.5l23.2-23.2h-61.5V267.2z M178.6,261.4c-0.5,0-0.9-0.4-0.9-0.9v-36.3
		c0-0.5,0.4-0.9,0.9-0.9c0.5,0,0.9,0.4,0.9,0.9v36.3C179.5,261,179.1,261.4,178.6,261.4z M171.2,261.4c-0.5,0-0.9-0.4-0.9-0.9v-36.3
		c0-0.5,0.4-0.9,0.9-0.9c0.5,0,0.9,0.4,0.9,0.9v36.3C172.1,261,171.7,261.4,171.2,261.4z"/>
</g>
<g>
	<path fill="none" stroke="#EC4B27" stroke-width="0.5" stroke-linecap="round" stroke-linejoin="round" stroke-miterlimit="10" d="
		M192.6,268.1"/>
</g>
<g>
	<path fill="none" stroke="#EC4B27" stroke-width="0.5" stroke-linecap="round" stroke-linejoin="round" stroke-miterlimit="10" d="
		M177,268.1"/>
</g>
<g>
	<path fill="none" stroke="#EC4B27" stroke-width="0.5" stroke-linecap="round" stroke-linejoin="round" stroke-miterlimit="10" d="
		M228.5,216.7"/>
</g>
<g>
	<path fill="none" stroke="#EC4B27" stroke-width="0.5" stroke-linecap="round" stroke-linejoin="round" stroke-miterlimit="10" d="
		M244,216.7"/>
</g>
<g>
	<path fill="#399DBB" d="M194,251.3c0,0-0.1,0-0.1-0.1c-0.1-0.1-0.1-0.2,0-0.3l8.1-8.1c0.1-0.1,0.2-0.1,0.3,0s0.1,0.2,0,0.3
		l-8.1,8.1C194.1,251.3,194,251.3,194,251.3z"/>
</g>
<g>
	<path fill="#399DBB" d="M202.1,243.2c0,0-0.1,0-0.1-0.1c-0.1-0.1-0.1-0.2,0-0.3l26.4-26.4c0.1-0.1,0.2-0.1,0.3,0
		c0.1,0.1,0.1,0.2,0,0.3l-26.4,26.4C202.2,243.2,202.1,243.2,202.1,243.2z"/>
</g>
<g>
	<path fill="#399DBB" d="M209.4,251.5c0,0-0.1,0-0.1-0.1c-0.1-0.1-0.1-0.2,0-0.3l34.6-34.6c0.1-0.1,0.2-0.1,0.3,0s0.1,0.2,0,0.3
		l-34.6,34.6C209.5,251.5,209.5,251.5,209.4,251.5z"/>
</g>
<g>
	<path fill="#399DBB" d="M192.6,268.3c0,0-0.1,0-0.1-0.1c-0.1-0.1-0.1-0.2,0-0.3l9.5-9.5c0.1-0.1,0.2-0.1,0.3,0s0.1,0.2,0,0.3
		l-9.5,9.5C192.7,268.3,192.6,268.3,192.6,268.3z"/>
</g>
<g>
	<path fill="#F15E4E" d="M210.5,307.6c-15.4,0-30.3-5.4-42-15.3c-1.4-1.2-2.8-2.5-4.1-3.8c-0.4-0.4-0.4-0.9,0-1.3l90.3-90.3
		c-1.1-1-2.2-2-3.4-3c-11.4-9.6-25.9-14.9-40.8-14.9c-35,0-63.4,28.4-63.4,63.4c0,10.4,2.6,20.7,7.5,29.9c0.2,0.4,0.1,1-0.4,1.2
		c-0.4,0.2-1,0.1-1.2-0.4c-5-9.4-7.7-20-7.7-30.7c0-36,29.3-65.2,65.2-65.2c15.4,0,30.3,5.4,42,15.3c1.4,1.2,2.8,2.5,4.1,3.8
		c0.4,0.4,0.4,0.9,0,1.3l-90.3,90.3c1.1,1,2.2,2,3.4,3c11.4,9.6,25.9,14.9,40.8,14.9c35,0,63.4-28.4,63.4-63.4
		c0-11.8-3.3-23.3-9.4-33.2c-0.3-0.4-0.1-1,0.3-1.3c0.4-0.3,1-0.1,1.3,0.3c6.3,10.3,9.7,22.1,9.7,34.2
		C275.8,278.4,246.5,307.6,210.5,307.6z"/>
</g>
</svg>
