<?xml version="1.0" encoding="utf-8"?>
<!-- Generator: Adobe Illustrator 18.1.1, SVG Export Plug-In . SVG Version: 6.00 Build 0)  -->
<!DOCTYPE svg PUBLIC "-//W3C//DTD SVG 1.1//EN" "http://www.w3.org/Graphics/SVG/1.1/DTD/svg11.dtd">
<svg version="1.1" id="Layer_1" xmlns="http://www.w3.org/2000/svg" xmlns:xlink="http://www.w3.org/1999/xlink" x="0px" y="0px"
	 viewBox="0 0 245 174.8" style="enable-background:new 0 0 245 174.8;" xml:space="preserve">
<style type="text/css">
	.st0{fill:#F15E4E;}
	.st1{fill:#127A97;}
	.st2{fill:none;}
</style>
<g>
	<g>
		<g>
			<path class="st0" d="M187.1,158.3h-40.2c-0.7,0-1.3-0.6-1.3-1.3s0.6-1.3,1.3-1.3h40.2c30.4,0,55.2-24.8,55.2-55.2
				s-24.8-55.2-55.2-55.2c-6,0-12,1-17.7,2.9c-0.7,0.2-1.5-0.1-1.7-0.8c-9.5-26.7-34.9-44.6-63.3-44.6c-37,0-67.2,30.1-67.2,67.2
				c0,1.1,0,2.2,0.1,3.4c0,0.7-0.4,1.3-1.1,1.4C16.8,78.1,2.7,95,2.7,114.8c0,22.5,18.3,40.8,40.8,40.8h54.6c0.7,0,1.3,0.6,1.3,1.3
				s-0.6,1.3-1.3,1.3H43.5c-24,0-43.5-19.5-43.5-43.5c0-20.7,14.5-38.4,34.6-42.6c0-0.8,0-1.6,0-2.4C34.6,31.3,65.9,0,104.4,0
				c29,0,55.2,18.1,65.4,45.2c5.6-1.8,11.5-2.7,17.3-2.7c31.9,0,57.9,26,57.9,57.9S219.1,158.3,187.1,158.3z"/>
		</g>
		<g>
			<path class="st1" d="M122.5,174.8c-0.7,0-1.3-0.6-1.3-1.3v-91l-37.9,37.9c-0.5,0.5-1.4,0.5-1.9,0c-0.5-0.5-0.5-1.4,0-1.9
				l40.2-40.2c0.4-0.4,1-0.5,1.5-0.3c0.5,0.2,0.8,0.7,0.8,1.2v94.2C123.9,174.2,123.3,174.8,122.5,174.8z"/>
		</g>
		<g>
			<path class="st1" d="M162.7,120.8c-0.3,0-0.7-0.1-1-0.4l-40.2-40.2c-0.5-0.5-0.5-1.4,0-1.9c0.5-0.5,1.4-0.5,1.9,0l40.2,40.2
				c0.5,0.5,0.5,1.4,0,1.9C163.4,120.7,163.1,120.8,162.7,120.8z"/>
		</g>
	</g>
	<g>
		<path class="st2" d="M87.3,84.3"/>
	</g>
	<g>
		<path class="st2" d="M87.3,84.3"/>
	</g>
</g>
</svg>
