<?xml version="1.0" encoding="utf-8"?>
<!-- Generator: Adobe Illustrator 18.1.1, SVG Export Plug-In . SVG Version: 6.00 Build 0)  -->
<!DOCTYPE svg PUBLIC "-//W3C//DTD SVG 1.1//EN" "http://www.w3.org/Graphics/SVG/1.1/DTD/svg11.dtd">
<svg version="1.1" id="Layer_1" xmlns="http://www.w3.org/2000/svg" xmlns:xlink="http://www.w3.org/1999/xlink" x="0px" y="0px"
	 viewBox="0 0 500 500" style="enable-background:new 0 0 500 500;" xml:space="preserve">
<style type="text/css">
	.st0{fill:#F15F4F;}
	.st1{fill:#167A97;}
	.st2{fill:none;}
	.st3{fill:none;stroke:#F15F4F;stroke-miterlimit:10;}
	.st4{fill:none;stroke:#217C97;stroke-linecap:round;stroke-miterlimit:10;}
	.st5{fill:none;stroke:#F15F4F;stroke-width:2.3;stroke-linecap:round;stroke-linejoin:round;stroke-miterlimit:10;}
	.st6{fill:none;stroke:#F15F4F;stroke-width:2.3;stroke-linecap:round;stroke-miterlimit:10;}
	.st7{fill:none;stroke:#217C97;stroke-width:2.3;stroke-linecap:round;stroke-miterlimit:10;}
	.st8{fill:#217C97;}
	.st9{fill:none;stroke:#F15F4F;stroke-linecap:round;stroke-miterlimit:10;}
	.st10{fill:none;stroke:#F15F4F;stroke-width:1.4409;stroke-linecap:round;stroke-miterlimit:10;}
	.st11{fill:#216882;}
	.st12{fill:#E25840;}
	.st13{fill:#143E4C;}
	.st14{fill:#3B9FBD;}
	.st15{fill:#1C5368;}
	.st16{fill:#CC4C37;}
	.st17{fill:#D5533B;}
	.st18{fill:#F06A4A;}
	.st19{fill:none;stroke:#167A97;stroke-width:3;stroke-miterlimit:10;}
	.st20{fill:none;stroke:#F15F4F;stroke-width:3;stroke-linejoin:round;stroke-miterlimit:10;}
	.st21{fill:none;stroke:#F15F4F;stroke-width:3;stroke-linecap:round;stroke-miterlimit:10;}
	.st22{fill:#F05144;}
	.st23{opacity:0.5;}
	.st24{fill:#FFFFFF;}
	.st25{fill:none;stroke:#F05144;stroke-width:0.9856;stroke-miterlimit:10;}
	.st26{fill:#FFFFFF;stroke:#F05144;stroke-width:1.3141;stroke-miterlimit:10;}
	.st27{opacity:0.49;}
	.st28{fill:none;stroke:#F05144;stroke-width:1.9711;stroke-miterlimit:10;}
	.st29{opacity:0.51;}
	.st30{fill:none;stroke:#7E2419;stroke-width:1.3141;stroke-linecap:round;stroke-linejoin:round;stroke-miterlimit:10;}
	.st31{opacity:0.52;}
	.st32{fill:url(#SVGID_4_);}
	.st33{opacity:0.3;fill:url(#SVGID_5_);enable-background:new    ;}
	.st34{opacity:0.3;fill:url(#SVGID_6_);enable-background:new    ;}
	.st35{opacity:0.3;}
	.st36{fill:url(#SVGID_7_);}
	.st37{fill:url(#SVGID_8_);}
	.st38{opacity:0.3;fill:url(#SVGID_9_);enable-background:new    ;}
	.st39{opacity:0.3;fill:url(#SVGID_10_);enable-background:new    ;}
	.st40{fill:url(#SVGID_11_);}
	.st41{fill:url(#SVGID_12_);}
	.st42{opacity:0.3;fill:url(#SVGID_13_);enable-background:new    ;}
	.st43{opacity:0.3;fill:url(#SVGID_14_);enable-background:new    ;}
	.st44{fill:url(#SVGID_15_);}
	.st45{fill:#F15F4E;}
	.st46{clip-path:url(#SVGID_17_);}
	.st47{fill:none;stroke:#399DBB;stroke-width:2.5;stroke-linecap:round;stroke-linejoin:round;stroke-miterlimit:10;}
	.st48{fill:#EB4D26;}
	.st49{fill:none;stroke:#EB4D26;stroke-width:0.5;stroke-linecap:round;stroke-linejoin:round;stroke-miterlimit:10;}
	.st50{fill:#399DBB;}
</style>
<g>
	<g>
		<g>
			<path class="st0" d="M376.7,389.1h-78.9c-1.4,0-2.5-1.2-2.5-2.5s1.2-2.5,2.5-2.5h78.9c59.6,0,108.3-48.6,108.3-108.3
				s-48.6-108.3-108.3-108.3c-11.8,0-23.5,2-34.7,5.7c-1.4,0.4-2.9-0.2-3.3-1.6c-18.6-52.4-68.5-87.5-124.2-87.5
				c-72.6,0-131.8,59-131.8,131.8c0,2.2,0,4.3,0.2,6.7c0,1.4-0.8,2.5-2.2,2.7C42.7,231.8,15,264.9,15,303.7c0,44.1,35.9,80,80,80
				h107.1c1.4,0,2.5,1.2,2.5,2.5c0,1.4-1.2,2.5-2.5,2.5H95c-47.1,0-85.3-38.2-85.3-85.3c0-40.6,28.4-75.3,67.9-83.6
				c0-1.6,0-3.1,0-4.7C77.6,140,139,78.6,214.5,78.6c56.9,0,108.3,35.5,128.3,88.7c11-3.5,22.6-5.3,33.9-5.3
				c62.6,0,113.6,51,113.6,113.6S439.5,389.1,376.7,389.1z"/>
		</g>
		<g>
			<path class="st1" d="M250,421.4c-1.4,0-2.5-1.2-2.5-2.5V240.4l-74.3,74.3c-1,1-2.7,1-3.7,0s-1-2.7,0-3.7l78.9-78.9
				c0.8-0.8,2-1,2.9-0.6c1,0.4,1.6,1.4,1.6,2.4v184.8C252.7,420.3,251.6,421.4,250,421.4z"/>
		</g>
		<g>
			<path class="st1" d="M328.9,315.5c-0.6,0-1.4-0.2-2-0.8L248,235.9c-1-1-1-2.7,0-3.7c1-1,2.7-1,3.7,0l78.9,78.9c1,1,1,2.7,0,3.7
				C330.2,315.3,329.6,315.5,328.9,315.5z"/>
		</g>
	</g>
	<g>
		<path class="st2" d="M181,243.9"/>
	</g>
	<g>
		<path class="st2" d="M181,243.9"/>
	</g>
</g>
</svg>
