<?xml version="1.0" encoding="utf-8"?>
<!-- Generator: Adobe Illustrator 18.1.1, SVG Export Plug-In . SVG Version: 6.00 Build 0)  -->
<!DOCTYPE svg PUBLIC "-//W3C//DTD SVG 1.1//EN" "http://www.w3.org/Graphics/SVG/1.1/DTD/svg11.dtd">
<svg version="1.1" id="Layer_1" xmlns="http://www.w3.org/2000/svg" xmlns:xlink="http://www.w3.org/1999/xlink" x="0px" y="0px"
	 viewBox="0 0 460 140" style="enable-background:new 0 0 460 140;" xml:space="preserve">
<style type="text/css">
	.st0{fill:#127A97;}
	.st1{fill:none;stroke:#F15D4E;stroke-width:1.4409;stroke-linecap:round;stroke-miterlimit:10;}
	.st2{fill:#1E6781;}
	.st3{fill:#E25740;}
	.st4{fill:#123D4C;}
	.st5{fill:#399FBD;}
	.st6{fill:#185267;}
	.st7{fill:#CC4B37;}
	.st8{fill:#D4523B;}
	.st9{fill:#F16949;}
	.st10{fill:#F15D4E;}
</style>
<g>
	<g>
		<path class="st0" d="M184.3,101h-6.7v19.2h-3.7V101h-6.7v-3h17.1V101z"/>
		<path class="st0" d="M195.5,120.5c-2.3,0-4.2-0.8-5.6-2.3c-1.4-1.5-2.1-3.5-2.1-5.9v-0.6c0-2.4,0.7-4.4,2.1-6
			c1.4-1.6,3.1-2.4,5.2-2.4c2.2,0,3.9,0.7,5.1,2c1.2,1.3,1.8,3.1,1.8,5.4v2.2h-10.3l0,0.1c0.1,1.3,0.4,2.4,1.1,3.2
			c0.7,0.8,1.7,1.2,2.9,1.2c1,0,1.8-0.1,2.6-0.4c0.7-0.2,1.4-0.6,2.1-1l1.2,2.4c-0.6,0.6-1.4,1-2.5,1.4
			C198,120.3,196.8,120.5,195.5,120.5z M195,106.4c-0.9,0-1.7,0.4-2.3,1.1c-0.6,0.7-1,1.6-1.1,2.8l0,0.1h6.5V110
			c0-1-0.3-1.9-0.8-2.6C196.9,106.7,196.1,106.4,195,106.4z"/>
		<path class="st0" d="M214.8,117.6c0.9,0,1.7-0.3,2.3-0.8c0.6-0.5,0.9-1.2,0.9-2h3.3l0,0.1c0,1.5-0.6,2.9-1.9,4
			c-1.3,1.1-2.9,1.7-4.7,1.7c-2.4,0-4.3-0.8-5.6-2.3c-1.3-1.6-1.9-3.5-1.9-5.9v-0.5c0-2.4,0.6-4.4,1.9-5.9c1.3-1.6,3.2-2.4,5.6-2.4
			c2,0,3.6,0.6,4.8,1.7c1.2,1.2,1.8,2.6,1.8,4.4l0,0.1H218c0-0.9-0.3-1.7-0.9-2.3c-0.6-0.6-1.4-0.9-2.3-0.9c-1.4,0-2.4,0.5-3,1.5
			c-0.6,1-0.9,2.3-0.9,3.8v0.5c0,1.6,0.3,2.8,0.9,3.8C212.5,117.1,213.4,117.6,214.8,117.6z"/>
		<path class="st0" d="M231.2,105.9c0.5-0.8,1.2-1.4,2-1.8c0.8-0.4,1.7-0.6,2.6-0.6c1.7,0,3.1,0.6,4.1,1.7c1,1.1,1.5,2.8,1.5,5.1v10
			h-3.7v-10.1c0-1.3-0.3-2.2-0.8-2.8c-0.5-0.6-1.3-0.9-2.3-0.9c-0.7,0-1.4,0.2-1.9,0.4c-0.6,0.3-1,0.7-1.4,1.2v12.1h-3.7V96.5h3.7
			V105.9z"/>
		<path class="st0" d="M260.4,120.2v-13.7h-2.5v-2.7h2.5v-1.9c0-1.8,0.5-3.2,1.5-4.2c1-1,2.4-1.5,4.2-1.5c0.4,0,0.7,0,1.1,0.1
			c0.4,0.1,0.8,0.1,1.2,0.2l-0.4,2.9c-0.2,0-0.4-0.1-0.7-0.1c-0.2,0-0.5,0-0.8,0c-0.8,0-1.4,0.2-1.8,0.7c-0.4,0.5-0.6,1.1-0.6,2v1.9
			h3.3v2.7h-3.3v13.7H260.4z"/>
		<path class="st0" d="M272.5,111.8c0-2.4,0.7-4.5,2-6c1.4-1.6,3.2-2.4,5.5-2.4c2.4,0,4.2,0.8,5.6,2.4c1.3,1.6,2,3.6,2,6v0.3
			c0,2.5-0.7,4.5-2,6.1c-1.3,1.6-3.2,2.3-5.5,2.3c-2.4,0-4.2-0.8-5.6-2.3c-1.3-1.6-2-3.6-2-6V111.8z M276.2,112.1
			c0,1.6,0.3,2.9,0.9,3.9c0.6,1,1.6,1.5,2.9,1.5c1.3,0,2.3-0.5,2.9-1.5c0.6-1,1-2.3,1-3.9v-0.3c0-1.6-0.3-2.9-1-3.9
			c-0.6-1-1.6-1.5-2.9-1.5c-1.3,0-2.3,0.5-2.9,1.5c-0.6,1-0.9,2.3-0.9,3.9V112.1z"/>
		<path class="st0" d="M302.2,107.1l-1.6-0.1c-0.7,0-1.3,0.2-1.8,0.5c-0.5,0.3-0.9,0.7-1.1,1.3v11.4H294v-16.5h3.4l0.2,2.4
			c0.4-0.8,1-1.5,1.6-2c0.7-0.5,1.4-0.7,2.3-0.7c0.2,0,0.4,0,0.6,0.1c0.2,0,0.4,0.1,0.5,0.1L302.2,107.1z"/>
		<path class="st0" d="M335.4,112.9L335.4,112.9c0.1,2.3-0.7,4.2-2.2,5.6c-1.5,1.4-3.5,2.1-6.1,2.1c-2.6,0-4.7-0.9-6.3-2.6
			c-1.6-1.7-2.4-4-2.4-6.7V107c0-2.7,0.8-4.9,2.4-6.7c1.6-1.8,3.7-2.6,6.2-2.6c2.6,0,4.7,0.7,6.2,2.1c1.5,1.4,2.2,3.2,2.2,5.5l0,0.1
			h-3.6c0-1.5-0.4-2.7-1.2-3.5c-0.8-0.8-2-1.2-3.6-1.2c-1.5,0-2.7,0.6-3.6,1.8c-0.9,1.2-1.3,2.7-1.3,4.5v4.2c0,1.8,0.5,3.3,1.4,4.5
			c0.9,1.2,2.1,1.8,3.7,1.8c1.5,0,2.7-0.4,3.5-1.2c0.8-0.8,1.2-2,1.2-3.5H335.4z"/>
		<path class="st0" d="M352,117.8c-0.5,0.9-1.2,1.5-2,2c-0.8,0.5-1.7,0.7-2.7,0.7c-1.8,0-3.1-0.6-4.1-1.7c-1-1.1-1.5-2.9-1.5-5.3
			v-9.8h3.7v9.9c0,1.4,0.2,2.5,0.7,3c0.5,0.6,1.2,0.9,2.1,0.9c0.9,0,1.6-0.2,2.2-0.5c0.6-0.3,1.1-0.8,1.4-1.4v-11.9h3.7v16.5h-3.2
			L352,117.8z"/>
		<path class="st0" d="M366.4,120.2h-3.7V96.5h3.7V120.2z"/>
		<path class="st0" d="M378.3,99.7v4h3v2.7h-3v9.1c0,0.7,0.1,1.2,0.4,1.5c0.3,0.3,0.7,0.4,1.2,0.4c0.2,0,0.4,0,0.6-0.1
			c0.2,0,0.4-0.1,0.5-0.1l0.4,2.7c-0.3,0.2-0.7,0.3-1.1,0.4c-0.4,0.1-0.9,0.1-1.4,0.1c-1.4,0-2.4-0.4-3.2-1.2
			c-0.8-0.8-1.2-2-1.2-3.8v-9.1h-2.5v-2.7h2.5v-4H378.3z"/>
		<path class="st0" d="M397.9,117.8c-0.5,0.9-1.2,1.5-2,2c-0.8,0.5-1.7,0.7-2.7,0.7c-1.8,0-3.1-0.6-4.1-1.7c-1-1.1-1.5-2.9-1.5-5.3
			v-9.8h3.7v9.9c0,1.4,0.2,2.5,0.7,3c0.5,0.6,1.2,0.9,2.1,0.9c0.9,0,1.6-0.2,2.2-0.5c0.6-0.3,1.1-0.8,1.4-1.4v-11.9h3.7v16.5h-3.2
			L397.9,117.8z"/>
		<path class="st0" d="M416.6,107.1l-1.6-0.1c-0.7,0-1.3,0.2-1.8,0.5c-0.5,0.3-0.9,0.7-1.1,1.3v11.4h-3.7v-16.5h3.4l0.2,2.4
			c0.4-0.8,1-1.5,1.6-2c0.7-0.5,1.4-0.7,2.3-0.7c0.2,0,0.4,0,0.6,0.1c0.2,0,0.4,0.1,0.5,0.1L416.6,107.1z"/>
		<path class="st0" d="M429.4,120.5c-2.3,0-4.2-0.8-5.6-2.3c-1.4-1.5-2.1-3.5-2.1-5.9v-0.6c0-2.4,0.7-4.4,2.1-6
			c1.4-1.6,3.1-2.4,5.2-2.4c2.2,0,3.9,0.7,5.1,2c1.2,1.3,1.8,3.1,1.8,5.4v2.2h-10.3l0,0.1c0.1,1.3,0.4,2.4,1.1,3.2
			c0.7,0.8,1.7,1.2,2.9,1.2c1,0,1.8-0.1,2.6-0.4c0.7-0.2,1.4-0.6,2.1-1l1.2,2.4c-0.6,0.6-1.4,1-2.5,1.4
			C431.9,120.3,430.8,120.5,429.4,120.5z M429,106.4c-0.9,0-1.7,0.4-2.3,1.1c-0.6,0.7-1,1.6-1.1,2.8l0,0.1h6.5V110
			c0-1-0.3-1.9-0.8-2.6C430.9,106.7,430.1,106.4,429,106.4z"/>
	</g>
	<line class="st1" x1="167" y1="81.6" x2="434.6" y2="81.6"/>
	<g>
		<polygon class="st2" points="132.5,42.7 128.9,40.7 124.4,38.1 124.4,38.1 120.3,35.7 116.2,33.4 112.2,31 108.1,28.6 91.7,19 
			91.7,19 89.4,17.7 87.6,16.7 83.5,14.3 83.5,14.3 79.4,11.9 75.3,9.6 73.2,8.3 73.2,24.7 73.2,28 73.2,32.1 73.2,36.2 73.2,40.3 
			89.4,49.7 89.4,49.7 95.8,53.3 98.1,54.7 101.6,56.7 105.2,58.7 108.1,60.4 108.5,60.7 112.1,62.7 115.6,64.8 115.6,64.8 
			116.2,65.1 120.3,67.5 124.4,69.9 128.5,72.2 128.5,72.2 132.5,74.5 132.5,55 132.5,50.9 132.5,46.8 132.5,42.7 		"/>
		<path class="st2" d="M109.9,67.4l-4.1-2.4l-2.4-1.4l-1.7-1l-4.1-2.4l-4.1-2.4l-4.1-2.4v16.1v2.1v4.9v4.1V88v0l-4,2.3l-4.1,2.3
			L77.3,95l-4.1,2.4v1.2v4.1v4.1v4.1v2.9v4.1v4.1v4.1v4.1v1.5l24.4-14.1l4.1-2.4l4.1-2.4l4.1-2.4l4-2.3l2.3-1.3v-9.7V93v-4.1V71
			l-2.3-1.3L109.9,67.4z M97.6,83.3L97.6,83.3L97.6,83.3L97.6,83.3z"/>
	</g>
	<polygon class="st3" points="63.2,10.6 59.1,13 55,15.4 38,25.2 34.7,27.1 31.2,29.1 24.2,33.2 24.2,36.5 24.2,40.6 24.2,44.7 
		24.2,48.8 24.2,69.2 24.2,70 24.2,74.1 24.2,78.2 24.2,82.3 24.2,86.4 24.2,94.5 24.2,98.6 24.2,102.7 24.2,106.8 35.2,113.2 
		38.6,115.2 42.1,117.2 45.7,119.2 49.2,121.3 52.8,123.3 55,124.6 59.1,127 63.2,129.4 67.2,131.7 67.2,115 67.2,113.8 67.2,109.7 
		67.2,105.6 67.2,102.7 67.2,98.6 67.2,97.4 65.3,96.3 51,88 51,62 51,57.8 51,53.8 51,49.7 51,49.7 55.3,47.2 58.8,45.1 62.3,43.1 
		67.2,40.3 67.2,36.2 67.2,32.1 67.2,28 67.2,8.3 	"/>
	<g id="XMLID_12_">
		<g>
			<polygon class="st4" points="132.5,55 132.5,74.5 128.5,72.2 128.5,72.2 128.5,57.3 132.5,55 			"/>
			<polygon class="st0" points="132.5,50.9 132.5,55 132.5,55 128.5,57.3 124.3,59.7 120.3,62 115.6,64.8 115.6,64.8 112.1,62.7 
				112.1,62.7 132.5,50.9 			"/>
			<polygon class="st4" points="116.2,56.2 132.5,46.8 132.5,46.8 132.5,50.9 132.5,50.9 112.1,62.7 112.1,62.7 108.5,60.7 
				112.2,58.6 			"/>
			<polygon class="st2" points="132.5,42.7 132.5,46.8 132.5,46.8 116.2,56.2 116.2,52.1 132.5,42.7 			"/>
			<polygon class="st5" points="124.4,43.3 128.9,40.7 132.5,42.7 116.2,52.1 116.2,48 120.3,45.7 			"/>
			<polygon class="st4" points="128.9,40.7 124.4,43.3 124.4,38.1 			"/>
			<polygon class="st6" points="128.5,57.3 128.5,72.2 124.4,69.9 124.4,59.9 124.3,59.7 			"/>
			<polygon class="st4" points="124.4,59.9 124.4,69.9 120.3,67.5 120.3,62 124.3,59.7 			"/>
			<polygon class="st6" points="124.4,38.1 124.4,43.3 120.3,45.7 120.3,35.7 124.4,38.1 			"/>
			<polygon class="st2" points="120.3,62 120.3,67.5 116.2,65.1 115.6,64.8 			"/>
			<polygon class="st4" points="120.3,35.7 120.3,45.7 116.2,48 116.2,33.4 			"/>
			<polygon class="st2" points="116.2,97.1 116.2,106.8 114,108.1 114,98.4 			"/>
			<polygon class="st5" points="97.6,107.8 93.4,110.3 89.9,108.2 116.2,93 116.2,97.1 114,98.4 109.9,100.8 105.8,103.1 
				101.7,105.5 			"/>
			<polygon class="st4" points="116.2,88.9 116.2,93 89.9,108.2 86.3,106.2 105.9,94.9 109.9,92.6 114,90.2 			"/>
			<polygon class="st2" points="116.2,71 116.2,88.9 114,90.2 114,69.7 			"/>
			<polygon class="st0" points="116.2,52.1 116.2,56.2 112.2,58.6 112.2,31 116.2,33.4 116.2,48 			"/>
			<polygon class="st4" points="114,98.4 114,108.1 110,110.4 109.9,110.3 109.9,100.8 			"/>
			<polygon class="st4" points="114,69.7 114,90.2 109.9,92.6 109.9,67.4 109.9,67.4 			"/>
			<polygon class="st6" points="112.2,31 112.2,58.6 108.5,60.7 108.1,60.4 108.1,57.1 108.1,53 108.1,48.9 108.1,40 108.1,35.9 
				108.1,31.8 108.1,28.6 108.1,28.6 			"/>
			<polygon class="st6" points="109.9,110.3 110,110.4 105.8,112.8 105.8,103.1 109.9,100.8 			"/>
			<polygon class="st6" points="109.9,67.4 109.9,92.6 105.9,94.9 105.8,94.7 105.8,90.9 105.8,78.6 105.8,74.5 105.8,70.4 
				105.8,66.3 105.8,65 109.9,67.4 			"/>
			<polygon class="st2" points="108.1,28.6 108.1,28.6 108.1,31.8 91.7,22.3 91.7,19 			"/>
			<polygon class="st5" points="108.1,57.1 108.1,60.4 105.2,58.7 			"/>
			<polygon class="st0" points="108.1,53 108.1,57.1 105.2,58.7 101.6,56.7 			"/>
			<polygon class="st4" points="108.1,48.9 108.1,53 101.6,56.7 98.1,54.7 98.2,54.6 99.9,53.6 104,51.2 			"/>
			<polygon class="st2" points="108.1,40 108.1,48.9 104,51.2 104,37.6 			"/>
			<polygon class="st5" points="108.1,35.9 108.1,40 104,37.6 99.9,35.2 95.8,32.9 91.7,30.5 91.7,26.4 			"/>
			<polygon class="st4" points="108.1,31.8 108.1,35.9 91.7,26.4 91.7,22.3 			"/>
			<polygon class="st6" points="105.8,94.7 105.9,94.9 86.3,106.2 85.5,105.7 85.5,102.6 97.6,95.6 101.7,93.2 105.7,90.9 
				105.8,90.9 			"/>
			<polygon class="st4" points="103.4,63.6 105.8,65 105.8,66.3 91.2,74.7 89.4,73.7 89.4,71.6 89.5,71.6 93.5,69.3 97.6,66.9 
				101.7,64.6 			"/>
			<polygon class="st4" points="105.8,112.8 101.7,115.2 101.7,105.5 105.8,103.1 			"/>
			<polygon class="st4" points="105.8,78.6 105.8,90.9 105.7,90.9 101.7,93.2 101.7,80.9 			"/>
			<polygon class="st5" points="105.8,74.5 105.8,78.6 101.7,80.9 101.7,80.9 101.7,80.8 98.3,78.8 			"/>
			<polygon class="st4" points="105.8,70.4 105.8,74.5 98.3,78.8 94.8,76.8 			"/>
			<polygon class="st6" points="105.8,66.3 105.8,70.4 94.8,76.8 91.2,74.7 			"/>
			<polygon class="st6" points="104,51.2 99.9,53.6 99.9,35.2 104,37.6 			"/>
			<polygon class="st0" points="101.7,62.6 103.4,63.6 101.7,64.6 101.7,64.6 			"/>
			<polygon class="st2" points="101.7,64.6 101.7,64.6 97.6,66.9 97.6,60.3 101.7,62.6 			"/>
			<polygon class="st2" points="101.7,105.5 101.7,115.2 97.6,117.6 97.6,117.5 97.6,116 97.6,111.9 97.6,107.8 			"/>
			<polygon class="st2" points="101.7,80.9 101.7,93.2 97.6,95.6 97.6,95.6 97.6,91.5 97.6,87.4 97.6,83.3 97.6,83.3 			"/>
			<polygon class="st0" points="101.7,80.9 101.7,80.9 97.6,83.3 97.6,83.3 89.4,78.6 89.4,73.7 91.2,74.7 94.8,76.8 98.3,78.8 
				101.7,80.8 			"/>
			<polygon class="st0" points="99.9,35.2 99.9,53.6 98.2,54.6 98.1,54.7 95.8,53.3 95.8,49.3 95.8,45.2 95.8,41.1 95.8,32.9 			"/>
			<polygon class="st4" points="97.6,117.6 73.2,131.7 73.2,130.1 73.2,130.1 97.6,116 97.6,117.5 			"/>
			<polygon class="st4" points="97.6,95.6 97.6,95.6 85.5,102.6 85.5,98.5 97.6,91.5 			"/>
			<polygon class="st6" points="93.5,57.9 97.6,60.3 97.6,66.9 93.5,69.3 			"/>
			<polygon class="st6" points="97.6,111.9 97.6,116 73.2,130.1 73.2,130.1 73.2,126 73.2,126 86.3,118.5 89.9,116.4 93.4,114.4 
				96.9,112.3 97,112.3 			"/>
			<polygon class="st0" points="97.6,107.8 97.6,111.9 97,112.3 96.9,112.3 93.4,110.3 			"/>
			<polygon class="st6" points="97.6,87.4 97.6,91.5 85.5,98.5 85.5,94.4 			"/>
			<polygon class="st4" points="97.6,83.3 97.6,87.4 85.5,94.4 85.5,90.4 85.5,90.3 89.4,88 89.4,88 89.5,88 94.1,85.4 97.6,83.3 
							"/>
			<polygon class="st4" points="97.6,83.3 94.1,85.4 89.4,82.7 89.4,78.6 			"/>
			<polygon class="st2" points="93.4,110.3 96.9,112.3 93.4,114.4 93.4,114.4 73.2,102.7 73.2,98.6 77.3,101 81.4,103.3 85.5,105.7 
				86.3,106.2 89.9,108.2 			"/>
			<polygon class="st2" points="95.8,49.3 95.8,53.3 89.4,49.7 89.4,49.7 73.2,40.3 73.2,36.2 			"/>
			<polygon class="st4" points="95.8,45.2 95.8,49.3 73.2,36.2 73.2,32.1 			"/>
			<polygon class="st0" points="95.8,41.1 95.8,45.2 73.2,32.1 73.2,28 73.9,28.4 73.9,28.4 77.4,30.5 81,32.5 83.5,34 87.6,36.3 
				91.7,38.7 			"/>
			<polygon class="st2" points="95.8,32.9 95.8,41.1 91.7,38.7 91.7,38.6 91.7,30.5 			"/>
			<polygon class="st2" points="94.1,85.4 89.5,88 89.4,88 89.4,82.7 			"/>
			<polygon class="st2" points="93.5,57.9 93.5,69.3 89.5,71.6 89.4,71.6 89.4,55.6 			"/>
			<polygon class="st4" points="93.4,114.4 93.4,114.4 89.9,116.4 73.2,106.8 73.2,102.7 			"/>
			<polygon class="st6" points="91.7,30.5 91.7,38.6 91.7,38.7 87.6,36.3 87.6,16.7 89.4,17.7 91.7,19 91.7,19 91.7,22.3 91.7,26.4 
							"/>
			<polygon class="st2" points="89.9,116.4 86.3,118.5 82.8,116.4 79.2,114.4 75.7,112.3 73.2,110.9 73.2,106.8 			"/>
			<polygon class="st5" points="87.6,16.7 87.6,36.3 83.5,34 83.5,31 83.5,26.9 83.5,22.8 83.5,18.8 83.5,14.3 			"/>
			<polygon class="st4" points="86.3,118.5 73.2,126 73.2,126 73.2,121.9 73.2,121.9 82.8,116.4 			"/>
			<polygon class="st0" points="85.5,102.6 85.5,105.7 81.4,103.3 81.4,92.7 85.5,90.3 85.5,90.4 85.5,94.4 85.5,98.5 			"/>
			<polygon class="st2" points="83.5,31 83.5,34 81,32.5 81,32.5 			"/>
			<polygon class="st4" points="83.5,26.9 83.5,31 81,32.5 81,32.5 77.4,30.5 			"/>
			<polygon class="st2" points="83.5,22.8 83.5,26.9 77.4,30.5 73.9,28.4 			"/>
			<polygon class="st4" points="83.5,18.8 83.5,22.8 73.9,28.4 73.9,28.4 73.2,28 73.2,24.7 75.3,23.5 79.4,21.1 			"/>
			<polygon class="st2" points="83.5,14.3 83.5,18.8 79.4,21.1 79.4,11.9 83.5,14.3 			"/>
			<polygon class="st6" points="82.8,116.4 73.2,121.9 73.2,121.9 73.2,117.9 79.2,114.4 79.2,114.4 			"/>
			<polygon class="st4" points="81.4,92.7 81.4,103.3 77.3,101 77.3,95 			"/>
			<polygon class="st6" points="79.4,11.9 79.4,21.1 75.3,23.5 75.3,9.6 			"/>
			<polygon class="st4" points="75.7,112.3 79.2,114.4 79.2,114.4 73.2,117.9 73.2,113.8 			"/>
			<polygon class="st6" points="77.3,95 77.3,101 73.2,98.6 73.2,97.4 			"/>
			<polygon class="st5" points="75.7,112.3 73.2,113.8 73.2,110.9 			"/>
			<polygon class="st2" points="75.3,9.6 75.3,23.5 73.2,24.7 73.2,8.4 			"/>
		</g>
		<g>
		</g>
	</g>
	<g id="XMLID_11_">
		<g>
			<polygon class="st7" points="67.2,115 67.2,131.7 63.2,129.4 63.2,117.3 			"/>
			<polygon class="st8" points="67.2,113.8 67.2,115 63.2,117.3 59.1,119.6 55,122 52.7,123.3 49.2,121.3 64.7,112.3 			"/>
			<polygon class="st8" points="67.2,109.7 67.2,113.8 64.7,112.3 61.1,110.3 57.6,108.2 61.2,106.2 61.2,106.2 			"/>
			<polygon class="st7" points="67.2,105.6 67.2,109.7 61.2,106.2 61.2,106.2 64.7,104.2 			"/>
			<polygon class="st8" points="67.2,102.7 67.2,105.6 64.7,104.2 67.2,102.7 			"/>
			<polygon class="st7" points="67.2,98.6 67.2,102.7 67.2,102.7 64.7,104.2 61.2,106.2 57.6,108.2 42.1,117.2 38.6,115.2 
				38.7,115.1 			"/>
			<polygon class="st8" points="67.2,97.4 67.2,98.6 38.7,115.1 38.6,115.2 35.2,113.2 38.7,111.2 42.4,109.2 46,107.2 46.8,106.7 
				46.8,106.7 50.9,104.4 54.5,102.4 58.1,100.4 61.7,98.4 65.3,96.4 65.3,96.3 			"/>
			<polygon class="st9" points="67.2,36.2 67.2,40.3 62.3,43.1 62.3,43.1 58.8,41 			"/>
			<polygon class="st10" points="67.2,32.1 67.2,36.2 58.8,41 55.2,39 			"/>
			<polygon class="st9" points="67.2,28 67.2,32.1 55.2,39 55.2,39 51.7,37 55,35 55,35 59.1,32.7 63.3,30.2 			"/>
			<polygon class="st10" points="67.2,8.3 67.2,28 63.3,30.2 63.2,30.1 63.2,10.6 			"/>
			<polygon class="st7" points="65.3,96.3 65.3,96.4 61.7,98.4 50.9,92.1 50.9,88 			"/>
			<polygon class="st7" points="64.7,112.3 49.2,121.3 45.7,119.2 61.1,110.3 61.1,110.3 			"/>
			<polygon class="st8" points="63.2,30.1 63.3,30.2 59.1,32.7 59.1,13 63.2,10.6 			"/>
			<polygon class="st8" points="63.2,117.3 63.2,129.4 59.1,127 59.1,127 59.1,119.6 			"/>
			<polygon class="st8" points="62.3,43.1 62.3,43.1 58.8,45.1 37.5,32.9 34,30.8 31.2,29.2 31.1,29.1 34.7,27.1 34.8,27.2 51.7,37 
				55.2,39 55.2,39 58.8,41 			"/>
			<polygon class="st3" points="61.7,98.4 58.1,100.4 50.9,96.2 50.9,92.1 			"/>
			<polygon class="st8" points="61.1,110.3 61.1,110.3 45.7,119.2 42.1,117.2 57.6,108.2 			"/>
			<polygon class="st3" points="59.1,127 59.1,127 55,124.6 55,122 59.1,119.6 			"/>
			<polygon class="st9" points="59.1,13 59.1,32.7 55,35 55,30.9 55,26.9 55,22.8 55,18.7 55,15.4 			"/>
			<polygon class="st9" points="58.8,45.1 55.2,47.2 51.6,45.1 48.1,43.1 44.6,41 41.1,39 37.5,37 34,34.9 37.5,32.9 			"/>
			<polygon class="st3" points="58.1,100.4 54.5,102.4 50.9,100.3 50.9,96.2 			"/>
			<polygon class="st10" points="55.2,47.2 50.9,49.7 50.9,49.7 34.6,59.1 34.6,55 51.6,45.2 51.6,45.1 			"/>
			<polygon class="st8" points="55,122 55,124.6 52.7,123.3 			"/>
			<polygon class="st10" points="55,30.9 55,35 55,35 55,35 51.5,33 			"/>
			<polygon class="st3" points="55,26.9 55,30.9 51.5,33 47.9,30.9 			"/>
			<polygon class="st10" points="55,22.8 55,26.9 47.9,30.9 44.4,28.9 			"/>
			<polygon class="st3" points="55,18.7 55,22.8 44.4,28.9 40.9,26.9 			"/>
			<polygon class="st10" points="55,15.4 55,18.7 40.9,26.9 38,25.2 			"/>
			<polygon class="st9" points="55,35 55,35 51.7,37 34.8,27.2 34.7,27.1 38,25.2 40.9,26.9 44.4,28.9 47.9,30.9 51.5,33 			"/>
			<polygon class="st7" points="54.5,102.4 50.9,104.4 50.9,100.3 			"/>
			<polygon class="st3" points="51.6,45.1 51.6,45.2 34.6,55 34.6,50.9 48.1,43.1 48.1,43.1 			"/>
			<polygon class="st8" points="50.9,100.3 50.9,104.4 46.8,106.7 46.8,64.3 46.8,64.3 50.9,62 50.9,62 50.9,88 50.9,92.1 
				50.9,96.2 			"/>
			<polygon class="st7" points="50.9,57.9 50.9,62 50.9,62 46.8,64.3 42.8,66.7 38.7,69 34.1,71.7 34.1,71.7 30.6,69.6 			"/>
			<polygon class="st10" points="30.5,65.6 34.6,63.2 50.9,53.8 50.9,57.9 30.6,69.6 27,67.6 			"/>
			<polygon class="st7" points="50.9,49.7 50.9,53.8 34.6,63.2 34.6,59.1 			"/>
			<polygon class="st10" points="48.1,43.1 48.1,43.1 34.6,50.9 34.6,46.8 44.6,41 			"/>
			<polygon class="st10" points="46.8,106.7 46.8,106.7 46,107.2 42.8,105.3 42.8,66.7 42.8,66.7 46.8,64.3 46.8,64.3 			"/>
			<polygon class="st8" points="46,107.2 42.4,109.2 24.1,98.6 24.1,94.5 26.4,95.8 30.5,98.2 34.6,100.6 38.7,102.9 42.8,105.3 			
				"/>
			<polygon class="st7" points="44.6,41 34.6,46.8 34.6,42.8 41.1,39 			"/>
			<polygon class="st3" points="42.8,66.7 42.8,105.3 38.7,102.9 38.7,94.7 38.7,90.7 38.7,86.6 38.7,82.5 38.7,78.4 38.7,74.3 
				38.7,73.1 38.7,69.1 38.7,69 42.8,66.7 			"/>
			<polygon class="st7" points="42.4,109.2 38.7,111.2 38.7,111.1 24.1,102.7 24.1,98.6 			"/>
			<polygon class="st10" points="41.1,39 34.6,42.8 30.5,45.1 26.4,47.5 24.1,48.8 24.1,44.7 37.5,37 			"/>
			<polygon class="st8" points="38.7,111.1 38.7,111.2 35.2,113.2 24.1,106.8 24.1,102.7 			"/>
			<polygon class="st8" points="38.7,94.7 38.7,102.9 34.6,100.6 34.6,100.6 34.6,92.4 			"/>
			<polygon class="st10" points="30.5,90 26.4,87.7 24.1,86.4 24.1,82.3 38.7,90.7 38.7,94.7 34.6,92.4 			"/>
			<polygon class="st7" points="38.7,86.6 38.7,90.7 24.1,82.3 24.1,78.2 			"/>
			<polygon class="st10" points="38.7,82.5 38.7,86.6 24.1,78.2 24.1,74.1 			"/>
			<polygon class="st7" points="38.7,78.4 38.7,82.5 24.1,74.1 24.1,70 			"/>
			<polygon class="st3" points="38.7,74.3 38.7,78.4 24.1,70 24.1,69.2 26.4,67.9 27,67.6 30.6,69.6 34.1,71.7 34.1,71.7 			"/>
			<polygon class="st3" points="38.7,73.1 38.7,74.3 34.1,71.7 38.7,69 38.7,69.1 			"/>
			<polygon class="st10" points="37.5,32.9 34,34.9 24.1,40.6 24.1,36.5 34,30.8 			"/>
			<polygon class="st8" points="37.5,37 24.1,44.7 24.1,40.6 34,34.9 			"/>
			<polygon class="st7" points="34.6,100.6 34.6,100.6 30.5,98.2 30.5,98.2 30.5,90 34.6,92.4 			"/>
			<polygon class="st3" points="34.6,59.1 34.6,63.2 30.5,65.6 30.5,45.1 34.6,42.8 34.6,46.8 34.6,50.9 34.6,55 			"/>
			<polygon class="st9" points="31.2,29.2 34,30.8 24.1,36.5 24.1,33.2 31.1,29.1 			"/>
			<polygon class="st8" points="30.5,98.2 30.5,98.2 26.4,95.8 26.4,87.7 30.5,90 			"/>
			<polygon class="st7" points="30.5,45.1 30.5,65.6 27,67.6 26.4,67.9 26.4,47.5 			"/>
			<polygon class="st7" points="26.4,87.7 26.4,95.8 24.1,94.5 24.1,86.4 			"/>
			<polygon class="st3" points="26.4,47.5 26.4,67.9 24.1,69.2 24.1,48.8 			"/>
		</g>
		<g>
		</g>
	</g>
	<g>
		<path class="st9" d="M183.5,36.1c4.6,0,7.9,1.6,10.9,4.2c0.4,0.4,0.4,0.9,0,1.3l-1.2,1.2c-0.4,0.5-0.7,0.4-1.2,0
			c-2.3-2-5.6-3.4-8.6-3.4c-7.1,0-12.6,6-12.6,13c0,7,5.5,13,12.6,13c3.9,0,6.2-1.6,8.6-3.4c0.5-0.4,0.8-0.3,1.1-0.1l1.4,1.2
			c0.4,0.3,0.3,0.9,0,1.2c-3.1,3-7,4.4-11,4.4c-9,0-16.3-7.2-16.3-16.2S174.5,36.1,183.5,36.1z"/>
		<path class="st9" d="M220.9,36.1c9,0,16.3,7.3,16.3,16.3s-7.2,16.2-16.3,16.2c-9,0-16.2-7.2-16.2-16.2S211.9,36.1,220.9,36.1z
			 M220.9,65.4c7.2,0,13.1-5.9,13.1-13.1s-5.9-13.1-13.1-13.1c-7.2,0-13.1,6-13.1,13.1S213.7,65.4,220.9,65.4z"/>
		<path class="st9" d="M247.7,63.4c0.2-0.3,0.5-0.6,0.7-0.9c0.5-0.6,0.9-0.9,1.6-0.4c0.3,0.3,3.6,3.4,7.6,3.4c3.7,0,6.1-2.3,6.1-5
			c0-3.1-2.7-5-7.9-7.1c-5-2.2-8-4.2-8-9.4c0-3.1,2.4-8,9.6-8c4.4,0,7.7,2.3,7.7,2.3c0.3,0.1,0.8,0.7,0.3,1.5
			c-0.2,0.3-0.4,0.6-0.5,0.9c-0.4,0.6-0.9,0.8-1.6,0.4c-0.3-0.2-3.2-2.1-5.9-2.1c-4.8,0-6.2,3.1-6.2,5c0,3,2.3,4.8,6.1,6.4
			c6.1,2.5,10,4.8,10,10c0,4.7-4.5,8.1-9.8,8.1c-5.3,0-8.9-3.1-9.5-3.7C247.6,64.6,247.1,64.2,247.7,63.4z"/>
		<path class="st9" d="M285.8,52.9l-10.9-15.1c-0.4-0.6,0-1.3,0.7-1.3h2.1c0.3,0,0.6,0.2,0.7,0.4l9.1,12.6l9.1-12.6
			c0.1-0.2,0.4-0.4,0.7-0.4h2.1c0.7,0,1.1,0.7,0.7,1.3l-11,15v14.4c0,0.5-0.4,0.9-0.9,0.9h-1.8c-0.5,0-0.9-0.4-0.9-0.9V52.9z"/>
		<path class="st0" d="M316.7,39.5h-7.9c-0.5,0-0.9-0.4-0.9-0.9v-1.3c0-0.5,0.4-0.9,0.9-0.9h19.2c0.5,0,0.9,0.4,0.9,0.9v1.3
			c0,0.5-0.4,0.9-0.9,0.9h-7.9v27.7c0,0.5-0.4,0.9-0.9,0.9h-1.7c-0.5,0-0.9-0.4-0.9-0.9V39.5z"/>
		<path class="st0" d="M339.4,37.4c0-0.5,0.4-0.9,0.9-0.9h17.8c0.5,0,0.9,0.4,0.9,0.9v1.3c0,0.5-0.4,0.9-0.9,0.9h-15.2v11h13
			c0.5,0,0.9,0.4,0.9,0.9v1.3c0,0.5-0.4,0.9-0.9,0.9h-13v11.5h15.2c0.5,0,0.9,0.4,0.9,0.9v1.3c0,0.5-0.4,0.9-0.9,0.9h-17.8
			c-0.5,0-0.9-0.4-0.9-0.9V37.4z"/>
		<path class="st0" d="M385.7,36.1c4.6,0,7.9,1.6,10.9,4.2c0.4,0.4,0.4,0.9,0,1.3l-1.2,1.2c-0.4,0.5-0.7,0.4-1.2,0
			c-2.3-2-5.6-3.4-8.6-3.4c-7.1,0-12.6,6-12.6,13c0,7,5.5,13,12.6,13c3.9,0,6.2-1.6,8.6-3.4c0.5-0.4,0.8-0.3,1.1-0.1l1.4,1.2
			c0.4,0.3,0.3,0.9,0,1.2c-3.1,3-7,4.4-11,4.4c-9,0-16.3-7.2-16.3-16.2S376.6,36.1,385.7,36.1z"/>
		<path class="st0" d="M409.3,37.4c0-0.5,0.4-0.9,0.9-0.9h1.8c0.5,0,0.9,0.4,0.9,0.9v13.2h18.3V37.4c0-0.5,0.4-0.9,0.9-0.9h1.8
			c0.5,0,0.9,0.4,0.9,0.9v29.9c0,0.5-0.4,0.9-0.9,0.9h-1.8c-0.5,0-0.9-0.4-0.9-0.9V53.6h-18.3v13.7c0,0.5-0.4,0.9-0.9,0.9h-1.8
			c-0.5,0-0.9-0.4-0.9-0.9V37.4z"/>
	</g>
</g>
</svg>
