<?xml version="1.0" encoding="utf-8"?>
<!-- Generator: Adobe Illustrator 18.1.1, SVG Export Plug-In . SVG Version: 6.00 Build 0)  -->
<!DOCTYPE svg PUBLIC "-//W3C//DTD SVG 1.1//EN" "http://www.w3.org/Graphics/SVG/1.1/DTD/svg11.dtd">
<svg version="1.1" id="Layer_1" xmlns="http://www.w3.org/2000/svg" xmlns:xlink="http://www.w3.org/1999/xlink" x="0px" y="0px"
	 viewBox="0 0 1190.6 841.9" enable-background="new 0 0 1190.6 841.9" xml:space="preserve">
<g>
	<path fill="#F15E4D" d="M940.3,634.7C940.3,634.7,940.3,634.7,940.3,634.7c-0.7,0-1.2-0.6-1.2-1.2c0.1-9.1,0.3-22.5,0.3-34.7
		c0-12.2-0.2-22.2-0.5-27.4c-2-33.1-5.4-45.8-20.5-51.2c-0.6-0.2-1-0.9-0.7-1.6c0.2-0.6,0.9-1,1.6-0.7c17.5,6.1,20.3,21.7,22.2,53.3
		c0.3,5.3,0.5,15.4,0.5,27.6c0,12.2-0.1,25.7-0.3,34.8C941.5,634.2,941,634.7,940.3,634.7z"/>
</g>
<g>
	<path fill="#F15E4D" d="M953.2,667.4c-0.3,0-0.6-0.1-0.9-0.4l-63.2-63.2c-0.2-0.2-0.4-0.5-0.4-0.9v-19.8c0-0.5,0.3-0.9,0.8-1.1
		c0.5-0.2,1-0.1,1.3,0.3l50.2,50.2c0.5,0.5,0.5,1.2,0,1.7c-0.5,0.5-1.2,0.5-1.7,0l-48.2-48.2v16.3l60.8,60.8l0.3-13.6
		c0.1-2.6,0.7-62.7,0-79.9c-1.1-29.4-2.9-44.1-14.3-52c-0.6-0.4-0.7-1.1-0.3-1.7c0.4-0.6,1.1-0.7,1.7-0.3
		c12.3,8.5,14.1,23.6,15.3,53.9c0.7,17.2,0.1,77.4,0,80l-0.3,16.4c0,0.5-0.3,0.9-0.8,1.1C953.6,667.4,953.4,667.4,953.2,667.4z"/>
</g>
<g>
	<path fill="#F15E4D" d="M880.3,674.6c-0.2,0-0.5-0.1-0.7-0.2c-12.2-8.5-14.1-23.6-15.3-53.9c-0.7-17.4-0.1-77.4,0-80l0.3-16.4
		c0-0.5,0.3-0.9,0.8-1.1c0.5-0.2,1-0.1,1.3,0.3l63.2,63.2c0.2,0.2,0.4,0.5,0.4,0.9V607c0,0.5-0.3,0.9-0.8,1.1
		c-0.5,0.2-1,0.1-1.3-0.3L880,559.7c-0.1,8.9-0.2,20.8-0.2,31.9c0,12.2,0.2,22.2,0.5,27.4c1.8,30.5,4.4,45.5,20.5,51.2
		c0.6,0.2,1,0.9,0.7,1.6c-0.2,0.6-0.9,1-1.6,0.7c-17.5-6.1-20.3-21.7-22.2-53.3c-0.3-5.3-0.5-15.3-0.5-27.6
		c0-12.3,0.1-25.7,0.3-34.8c0-0.5,0.3-0.9,0.8-1.1c0.5-0.2,1-0.1,1.3,0.3l48.2,48.2v-16.3L867,526.9l-0.3,13.6
		c-0.1,2.6-0.7,62.6,0,79.9c1.1,29.4,2.9,44.1,14.3,52c0.6,0.4,0.7,1.1,0.3,1.7C881.1,674.4,880.7,674.6,880.3,674.6z"/>
</g>
<g>
	<defs>
		<path id="SVGID_1_" d="M918.7,520.2c-0.1,0-0.3,0-0.4-0.1c-5-1.8-9.7-2.1-17.2-2.2c-1.8,0-6.6,0-12.9,0c-13.4,0-40.2,0.1-45.2,0.3
			c-0.7,0-1.2-0.5-1.3-1.2c0-0.7,0.5-1.2,1.2-1.3c5-0.3,31.8-0.3,45.3-0.3c6.3,0,11.1,0,12.9,0c7.8,0.1,12.7,0.5,18,2.4
			c0.6,0.2,1,0.9,0.7,1.6C919.7,519.9,919.2,520.2,918.7,520.2z"/>
	</defs>
	<defs>
		<path id="SVGID_2_" d="M930.2,674.8c-5.9,0-10.5,0-12.2,0c-7.8-0.1-12.7-0.5-18-2.4c-0.6-0.2-1-0.9-0.7-1.6c0.2-0.6,0.9-1,1.6-0.7
			c5,1.8,9.7,2.1,17.2,2.2c6.4,0.1,51.6,0,58.1-0.3c6.1-0.3,10.4-4.6,10.7-10.7c0.4-7.6,0.4-125.9,0-131.9
			c-0.4-5.9-4.8-10.2-10.7-10.6c-7.2-0.4-30.7-0.8-37.3-0.8c-0.7,0-1.2-0.5-1.2-1.2c0-0.7,0.5-1.2,1.2-1.2c6.6,0,30.2,0.4,37.4,0.8
			c7.1,0.4,12.6,5.8,13,12.8c0.4,6,0.4,124.5,0,132.2c-0.4,7.3-5.7,12.7-13,13C971.5,674.7,946.1,674.8,930.2,674.8z"/>
	</defs>
	<defs>
		<path id="SVGID_3_" d="M880.3,674.6c-1.2,0-29.3,0-37.4-0.5c-7.1-0.4-12.6-5.8-13-12.8c-0.4-5.9-0.4-124.7,0-132.5
			c0.4-7.3,5.7-12.6,13-13c0.7,0,1.2,0.5,1.3,1.2c0,0.7-0.5,1.2-1.2,1.3c-6.1,0.3-10.4,4.6-10.7,10.7c-0.4,7.7-0.4,126.3,0,132.2
			c0.4,5.9,4.8,10.2,10.7,10.6c8,0.5,36.1,0.5,37.3,0.5c0.7,0,1.2,0.5,1.2,1.2C881.5,674,881,674.6,880.3,674.6z"/>
	</defs>
	<use xlink:href="#SVGID_1_"  overflow="visible" fill="#F15E4E"/>
	<use xlink:href="#SVGID_2_"  overflow="visible" fill="#F15E4E"/>
	<use xlink:href="#SVGID_3_"  overflow="visible" fill="#F15E4E"/>
	<clipPath id="SVGID_4_">
		<use xlink:href="#SVGID_1_"  overflow="visible"/>
	</clipPath>
	<clipPath id="SVGID_5_" clip-path="url(#SVGID_4_)">
		<use xlink:href="#SVGID_2_"  overflow="visible"/>
	</clipPath>
	<clipPath id="SVGID_6_" clip-path="url(#SVGID_5_)">
		<use xlink:href="#SVGID_3_"  overflow="visible"/>
	</clipPath>
</g>
</svg>
