<?xml version="1.0" encoding="utf-8"?>
<!-- Generator: Adobe Illustrator 18.1.1, SVG Export Plug-In . SVG Version: 6.00 Build 0)  -->
<!DOCTYPE svg PUBLIC "-//W3C//DTD SVG 1.1//EN" "http://www.w3.org/Graphics/SVG/1.1/DTD/svg11.dtd">
<svg version="1.1" id="Layer_1" xmlns="http://www.w3.org/2000/svg" xmlns:xlink="http://www.w3.org/1999/xlink" x="0px" y="0px"
	 viewBox="0 0 1190.6 841.9" enable-background="new 0 0 1190.6 841.9" xml:space="preserve">
<g>
	<path fill="#127A97" d="M213.9,655h-16.4c-0.3,0-0.7-0.1-0.9-0.4l-29.2-31.1c-0.2-0.2-0.3-0.5-0.3-0.9l0.2-17.2
		c0-0.5,0.3-0.9,0.8-1.1c0.5-0.2,1-0.1,1.3,0.3l45.4,48.3c0.3,0.4,0.4,0.9,0.2,1.3C214.9,654.7,214.4,655,213.9,655z M198.1,652.5
		h13l-41.4-44l-0.2,13.7L198.1,652.5z"/>
</g>
<g>
	<path fill="#127A97" d="M216.6,558.5c-0.6,0-1.2-0.5-1.2-1.2c0-0.7,0.5-1.2,1.2-1.3c0.3,0,25.9-1.3,47.7-13.2
		c4.6-2.5,6.7-6.1,6.1-10.2c-1-7-9.6-14.9-18.4-16.8c-3.7-0.8-10.4-1.2-14.6,5.3c-0.4,0.6-1.1,0.7-1.7,0.4c-0.6-0.4-0.7-1.1-0.4-1.7
		c3.7-5.7,9.8-8,17.2-6.4c9.9,2.2,19.2,10.8,20.3,18.8c0.7,5.2-1.9,9.7-7.4,12.7C243.1,557.2,216.9,558.4,216.6,558.5
		C216.6,558.5,216.6,558.5,216.6,558.5z"/>
</g>
<g>
	<path fill="none" stroke="#399DBB" stroke-width="2.5" stroke-linecap="round" stroke-linejoin="round" stroke-miterlimit="10" d="
		M236.3,520.5"/>
</g>
<g>
	<path fill="#127A97" d="M213.9,558.5C213.9,558.5,213.9,558.5,213.9,558.5c-0.3,0-26.5-1.3-48.8-13.5c-5.5-3-8.1-7.5-7.4-12.7
		c1.2-8.1,10.5-16.7,20.3-18.8c7.4-1.6,13.5,0.7,17.2,6.4c0.4,0.6,0.2,1.3-0.4,1.7c-0.6,0.4-1.3,0.2-1.7-0.4
		c-4.2-6.5-11-6.1-14.6-5.3c-8.8,1.9-17.4,9.8-18.4,16.8c-0.6,4.2,1.5,7.7,6.1,10.2c21.9,11.9,47.5,13.2,47.7,13.2
		c0.7,0,1.2,0.6,1.2,1.3C215.1,557.9,214.6,558.5,213.9,558.5z"/>
</g>
<g>
	<path fill="#F15E4E" d="M264.8,655h-96.5c-0.7,0-1.2-0.5-1.2-1.2v-96.5c0-0.7,0.5-1.2,1.2-1.2h96.5c0.7,0,1.2,0.5,1.2,1.2v96.5
		C266.1,654.4,265.5,655,264.8,655z M169.5,652.5h94.1v-94.1h-94.1V652.5z"/>
</g>
<g>
	<path fill="#127A97" d="M178.4,576.2c-5.9,0-12.5-0.7-19.9-2.4c-0.7-0.1-1.1-0.8-0.9-1.5c0.1-0.7,0.8-1.1,1.5-0.9
		c47.5,10.4,59.6-16.4,69.3-37.9c2.3-5.1,4.5-10,7-13.8c0.4-0.6,1.1-0.7,1.7-0.4c0.6,0.4,0.7,1.1,0.4,1.7c-2.4,3.7-4.5,8.4-6.8,13.5
		C222.5,552.6,211.8,576.2,178.4,576.2z"/>
</g>
<g>
	<path fill="#127A97" d="M252.1,576.2c-33.4,0-44.1-23.7-52.2-41.6c-2.3-5-4.4-9.8-6.8-13.5c-0.4-0.6-0.2-1.3,0.4-1.7
		c0.6-0.4,1.3-0.2,1.7,0.4c2.5,3.8,4.7,8.7,7,13.8c9.7,21.5,21.8,48.3,69.3,37.9c0.7-0.1,1.3,0.3,1.5,0.9c0.1,0.7-0.3,1.3-0.9,1.5
		C264.6,575.5,258,576.2,252.1,576.2z"/>
</g>
</svg>
