<?xml version="1.0" encoding="utf-8"?>
<!-- Generator: Adobe Illustrator 18.1.1, SVG Export Plug-In . SVG Version: 6.00 Build 0)  -->
<!DOCTYPE svg PUBLIC "-//W3C//DTD SVG 1.1//EN" "http://www.w3.org/Graphics/SVG/1.1/DTD/svg11.dtd">
<svg version="1.1" id="Layer_1" xmlns="http://www.w3.org/2000/svg" xmlns:xlink="http://www.w3.org/1999/xlink" x="0px" y="0px"
	 viewBox="0 0 134.2 188.6" style="enable-background:new 0 0 134.2 188.6;" xml:space="preserve">
<style type="text/css">
	.st0{fill:#127A97;}
	.st1{fill:none;stroke:#F15E4E;stroke-width:3;stroke-linecap:round;stroke-miterlimit:10;}
</style>
<g>
	<circle class="st0" cx="67.1" cy="94.3" r="11.8"/>
	<g>
		<path class="st1" d="M132.7,28.7c-16.8-16.8-40-27.2-65.6-27.2c-25.6,0-48.8,10.4-65.6,27.2"/>
		<path class="st1" d="M17.8,45c12.6-12.6,30.1-20.4,49.3-20.4c19.3,0,36.7,7.8,49.3,20.4"/>
		<path class="st1" d="M116.4,143.6C103.8,156.2,86.4,164,67.1,164c-19.3,0-36.7-7.8-49.3-20.4"/>
		<path class="st1" d="M1.5,159.9c16.8,16.8,40,27.2,65.6,27.2c25.6,0,48.8-10.4,65.6-27.2"/>
		<path class="st1" d="M100.1,127.3c-8.5,8.5-20.1,13.7-33,13.7c-12.9,0-24.6-5.2-33-13.7"/>
		<path class="st1" d="M17.8,143.6C30.4,156.2,47.8,164,67.1,164c19.3,0,36.7-7.8,49.3-20.4"/>
		<path class="st1" d="M116.4,45c-12.6-12.6-30.1-20.4-49.3-20.4c-19.3,0-36.7,7.8-49.3,20.4"/>
		<path class="st1" d="M34.1,61.3c8.5-8.5,20.1-13.7,33-13.7s24.6,5.2,33,13.7"/>
		<path class="st1" d="M83.8,111c-4.3,4.3-10.2,6.9-16.7,6.9c-6.5,0-12.5-2.6-16.7-6.9"/>
		<path class="st1" d="M34.1,127.3c8.5,8.5,20.1,13.7,33,13.7c12.9,0,24.6-5.2,33-13.7"/>
		<path class="st1" d="M100.1,61.3c-8.5-8.5-20.1-13.7-33-13.7s-24.6,5.2-33,13.7"/>
		<path class="st1" d="M50.4,77.5c4.3-4.3,10.2-6.9,16.7-6.9c6.5,0,12.5,2.6,16.7,6.9"/>
	</g>
</g>
</svg>
