<?xml version="1.0" encoding="utf-8"?>
<!-- Generator: Adobe Illustrator 18.1.1, SVG Export Plug-In . SVG Version: 6.00 Build 0)  -->
<!DOCTYPE svg PUBLIC "-//W3C//DTD SVG 1.1//EN" "http://www.w3.org/Graphics/SVG/1.1/DTD/svg11.dtd">
<svg version="1.1" id="Layer_1" xmlns="http://www.w3.org/2000/svg" xmlns:xlink="http://www.w3.org/1999/xlink" x="0px" y="0px"
	 viewBox="0 0 170.1 170.1" style="enable-background:new 0 0 170.1 170.1;" xml:space="preserve">
<style type="text/css">
	.st0{fill:#F15F4F;}
	.st1{fill:#167A97;}
	.st2{fill:none;}
	.st3{fill:none;stroke:#F15F4F;stroke-miterlimit:10;}
	.st4{fill:none;stroke:#217C97;stroke-linecap:round;stroke-miterlimit:10;}
	.st5{fill:none;stroke:#F15F4F;stroke-width:2.3;stroke-linecap:round;stroke-linejoin:round;stroke-miterlimit:10;}
	.st6{fill:none;stroke:#F15F4F;stroke-width:2.3;stroke-linecap:round;stroke-miterlimit:10;}
	.st7{fill:none;stroke:#217C97;stroke-width:2.3;stroke-linecap:round;stroke-miterlimit:10;}
	.st8{fill:#217C97;}
	.st9{fill:none;stroke:#F15F4F;stroke-linecap:round;stroke-miterlimit:10;}
	.st10{fill:none;stroke:#F15F4F;stroke-width:1.4409;stroke-linecap:round;stroke-miterlimit:10;}
	.st11{fill:#216882;}
	.st12{fill:#E25840;}
	.st13{fill:#143E4C;}
	.st14{fill:#3B9FBD;}
	.st15{fill:#1C5368;}
	.st16{fill:#CC4C37;}
	.st17{fill:#D5533B;}
	.st18{fill:#F06A4A;}
	.st19{fill:none;stroke:#167A97;stroke-width:3;stroke-miterlimit:10;}
	.st20{fill:none;stroke:#F15F4F;stroke-width:3;stroke-linejoin:round;stroke-miterlimit:10;}
	.st21{fill:none;stroke:#F15F4F;stroke-width:3;stroke-linecap:round;stroke-miterlimit:10;}
	.st22{fill:#F05144;}
	.st23{opacity:0.5;}
	.st24{fill:#FFFFFF;}
	.st25{fill:none;stroke:#F05144;stroke-width:0.9856;stroke-miterlimit:10;}
	.st26{fill:#FFFFFF;stroke:#F05144;stroke-width:1.3141;stroke-miterlimit:10;}
	.st27{opacity:0.49;}
	.st28{fill:none;stroke:#F05144;stroke-width:1.9711;stroke-miterlimit:10;}
	.st29{opacity:0.51;}
	.st30{fill:none;stroke:#7E2419;stroke-width:1.3141;stroke-linecap:round;stroke-linejoin:round;stroke-miterlimit:10;}
	.st31{opacity:0.52;}
	.st32{fill:url(#SVGID_4_);}
	.st33{opacity:0.3;fill:url(#SVGID_5_);enable-background:new    ;}
	.st34{opacity:0.3;fill:url(#SVGID_6_);enable-background:new    ;}
	.st35{opacity:0.3;}
	.st36{fill:url(#SVGID_7_);}
	.st37{fill:url(#SVGID_8_);}
	.st38{opacity:0.3;fill:url(#SVGID_9_);enable-background:new    ;}
	.st39{opacity:0.3;fill:url(#SVGID_10_);enable-background:new    ;}
	.st40{fill:url(#SVGID_11_);}
	.st41{fill:url(#SVGID_12_);}
	.st42{opacity:0.3;fill:url(#SVGID_13_);enable-background:new    ;}
	.st43{opacity:0.3;fill:url(#SVGID_14_);enable-background:new    ;}
	.st44{fill:url(#SVGID_15_);}
	.st45{fill:#F15F4E;}
	.st46{clip-path:url(#SVGID_17_);}
	.st47{fill:none;stroke:#399DBB;stroke-width:2.5;stroke-linecap:round;stroke-linejoin:round;stroke-miterlimit:10;}
	.st48{fill:#EB4D26;}
	.st49{fill:none;stroke:#EB4D26;stroke-width:0.5;stroke-linecap:round;stroke-linejoin:round;stroke-miterlimit:10;}
	.st50{fill:#399DBB;}
</style>
<g>
	<g>
		<polygon class="st11" points="161.1,48.7 156.4,46.1 150.4,42.6 150.4,42.6 144.9,39.4 139.5,36.3 134.1,33.2 128.7,30 
			106.9,17.2 106.9,17.2 103.8,15.5 101.4,14.1 96,10.9 96,10.9 90.5,7.7 85,4.7 82.3,3 82.3,24.8 82.3,29.2 82.3,34.6 82.3,40.1 
			82.3,45.5 103.8,58 103.8,58 112.3,62.8 115.4,64.7 120,67.3 124.8,70 128.7,72.3 129.2,72.7 134,75.3 138.7,78.1 138.7,78.1 
			139.5,78.5 144.9,81.7 150.4,84.9 155.8,88 155.8,88 161.1,91 161.1,65.1 161.1,59.6 161.1,54.2 		"/>
		<path class="st11" d="M131.1,81.6l-5.5-3.2l-3.2-1.9l-2.3-1.3l-5.5-3.2l-5.5-3.2l-5.5-3.2V87v2.8v6.5v5.5v7.2l0,0l-5.3,3.1
			l-5.5,3.1l-5.3,3.2l-5.5,3.2v1.6v5.5v5.5v5.5v3.9v5.5v5.5v5.5v5.5v2l32.5-18.8l5.5-3.2l5.5-3.2l5.5-3.2l5.3-3.1l3.1-1.7v-12.9
			v-5.5v-5.5V86.4l-3.1-1.7L131.1,81.6z M114.7,102.7L114.7,102.7L114.7,102.7L114.7,102.7z"/>
	</g>
	<polygon class="st12" points="68.9,6 63.5,9.2 58,12.4 35.4,25.4 31,28 26.4,30.6 17.1,36.1 17.1,40.5 17.1,45.9 17.1,51.4 
		17.1,56.8 17.1,84 17.1,85 17.1,90.5 17.1,95.9 17.1,101.4 17.1,106.9 17.1,117.6 17.1,123.1 17.1,128.5 17.1,134 31.7,142.5 
		36.2,145.2 40.9,147.8 45.7,150.5 50.3,153.3 55.1,156 58,157.7 63.5,160.9 68.9,164.1 74.3,167.1 74.3,144.9 74.3,143.3 
		74.3,137.9 74.3,132.4 74.3,128.5 74.3,123.1 74.3,121.5 71.7,120 52.7,109 52.7,74.4 52.7,68.8 52.7,63.5 52.7,58 52.7,58 
		58.4,54.7 63.1,51.9 67.8,49.3 74.3,45.5 74.3,40.1 74.3,34.6 74.3,29.2 74.3,3 	"/>
	<g id="XMLID_2_">
		<g>
			<polygon class="st13" points="161.1,65.1 161.1,91 155.8,88 155.8,88 155.8,68.1 			"/>
			<polygon class="st1" points="161.1,59.6 161.1,65.1 161.1,65.1 155.8,68.1 150.2,71.3 144.9,74.4 138.7,78.1 138.7,78.1 
				134,75.3 134,75.3 			"/>
			<polygon class="st13" points="139.5,66.7 161.1,54.2 161.1,54.2 161.1,59.6 161.1,59.6 134,75.3 134,75.3 129.2,72.7 134.1,69.9 
							"/>
			<polygon class="st11" points="161.1,48.7 161.1,54.2 161.1,54.2 139.5,66.7 139.5,61.2 			"/>
			<polygon class="st14" points="150.4,49.5 156.4,46.1 161.1,48.7 139.5,61.2 139.5,55.8 144.9,52.7 			"/>
			<polygon class="st13" points="156.4,46.1 150.4,49.5 150.4,42.6 			"/>
			<polygon class="st15" points="155.8,68.1 155.8,88 150.4,84.9 150.4,71.6 150.2,71.3 			"/>
			<polygon class="st13" points="150.4,71.6 150.4,84.9 144.9,81.7 144.9,74.4 150.2,71.3 			"/>
			<polygon class="st15" points="150.4,42.6 150.4,49.5 144.9,52.7 144.9,39.4 			"/>
			<polygon class="st11" points="144.9,74.4 144.9,81.7 139.5,78.5 138.7,78.1 			"/>
			<polygon class="st13" points="144.9,39.4 144.9,52.7 139.5,55.8 139.5,36.3 			"/>
			<polygon class="st11" points="139.5,121.1 139.5,134 136.5,135.7 136.5,122.8 			"/>
			<polygon class="st14" points="114.7,135.3 109.1,138.7 104.5,135.9 139.5,115.6 139.5,121.1 136.5,122.8 131.1,126 125.6,129.1 
				120.2,132.3 			"/>
			<polygon class="st13" points="139.5,110.2 139.5,115.6 104.5,135.9 99.7,133.2 125.8,118.2 131.1,115.1 136.5,111.9 			"/>
			<polygon class="st11" points="139.5,86.4 139.5,110.2 136.5,111.9 136.5,84.6 			"/>
			<polygon class="st1" points="139.5,61.2 139.5,66.7 134.1,69.9 134.1,33.2 139.5,36.3 139.5,55.8 			"/>
			<polygon class="st13" points="136.5,122.8 136.5,135.7 131.2,138.8 131.1,138.7 131.1,126 			"/>
			<polygon class="st13" points="136.5,84.6 136.5,111.9 131.1,115.1 131.1,81.6 131.1,81.6 			"/>
			<polygon class="st15" points="134.1,33.2 134.1,69.9 129.2,72.7 128.7,72.3 128.7,67.9 128.7,62.4 128.7,57 128.7,45.1 
				128.7,39.7 128.7,34.2 128.7,30 128.7,30 			"/>
			<polygon class="st15" points="131.1,138.7 131.2,138.8 125.6,142 125.6,129.1 131.1,126 			"/>
			<polygon class="st15" points="131.1,81.6 131.1,115.1 125.8,118.2 125.6,117.9 125.6,112.8 125.6,96.5 125.6,91 125.6,85.6 
				125.6,80.1 125.6,78.4 			"/>
			<polygon class="st11" points="128.7,30 128.7,30 128.7,34.2 106.9,21.6 106.9,17.2 			"/>
			<polygon class="st14" points="128.7,67.9 128.7,72.3 124.8,70 			"/>
			<polygon class="st1" points="128.7,62.4 128.7,67.9 124.8,70 120,67.3 			"/>
			<polygon class="st13" points="128.7,57 128.7,62.4 120,67.3 115.4,64.7 115.5,64.6 117.8,63.2 123.2,60 			"/>
			<polygon class="st11" points="128.7,45.1 128.7,57 123.2,60 123.2,41.9 			"/>
			<polygon class="st14" points="128.7,39.7 128.7,45.1 123.2,41.9 117.8,38.7 112.3,35.7 106.9,32.5 106.9,27 			"/>
			<polygon class="st13" points="128.7,34.2 128.7,39.7 106.9,27 106.9,21.6 			"/>
			<polygon class="st15" points="125.6,117.9 125.8,118.2 99.7,133.2 98.6,132.5 98.6,128.4 114.7,119.1 120.2,115.9 125.5,112.8 
				125.6,112.8 			"/>
			<polygon class="st13" points="122.4,76.5 125.6,78.4 125.6,80.1 106.2,91.3 103.8,90 103.8,87.2 103.9,87.2 109.3,84.1 
				114.7,80.9 120.2,77.9 			"/>
			<polygon class="st13" points="125.6,142 120.2,145.2 120.2,132.3 125.6,129.1 			"/>
			<polygon class="st13" points="125.6,96.5 125.6,112.8 125.5,112.8 120.2,115.9 120.2,99.5 			"/>
			<polygon class="st14" points="125.6,91 125.6,96.5 120.2,99.5 120.2,99.5 120.2,99.4 115.6,96.7 			"/>
			<polygon class="st13" points="125.6,85.6 125.6,91 115.6,96.7 111,94.1 			"/>
			<polygon class="st15" points="125.6,80.1 125.6,85.6 111,94.1 106.2,91.3 			"/>
			<polygon class="st15" points="123.2,60 117.8,63.2 117.8,38.7 123.2,41.9 			"/>
			<polygon class="st1" points="120.2,75.2 122.4,76.5 120.2,77.9 120.2,77.9 			"/>
			<polygon class="st11" points="120.2,77.9 120.2,77.9 114.7,80.9 114.7,72.1 120.2,75.2 			"/>
			<polygon class="st11" points="120.2,132.3 120.2,145.2 114.7,148.4 114.7,148.2 114.7,146.2 114.7,140.8 114.7,135.3 			"/>
			<polygon class="st11" points="120.2,99.5 120.2,115.9 114.7,119.1 114.7,119.1 114.7,113.6 114.7,108.2 114.7,102.7 114.7,102.7 
							"/>
			<polygon class="st1" points="120.2,99.5 120.2,99.5 114.7,102.7 114.7,102.7 103.8,96.5 103.8,90 106.2,91.3 111,94.1 
				115.6,96.7 120.2,99.4 			"/>
			<polygon class="st1" points="117.8,38.7 117.8,63.2 115.5,64.6 115.4,64.7 112.3,62.8 112.3,57.5 112.3,52 112.3,46.6 
				112.3,35.7 			"/>
			<polygon class="st13" points="114.7,148.4 82.3,167.1 82.3,165 82.3,165 114.7,146.2 114.7,148.2 			"/>
			<polygon class="st13" points="114.7,119.1 114.7,119.1 98.6,128.4 98.6,123 114.7,113.6 			"/>
			<polygon class="st15" points="109.3,68.9 114.7,72.1 114.7,80.9 109.3,84.1 			"/>
			<polygon class="st15" points="114.7,140.8 114.7,146.2 82.3,165 82.3,165 82.3,159.5 82.3,159.5 99.7,149.6 104.5,146.8 
				109.1,144.1 113.8,141.3 113.9,141.3 			"/>
			<polygon class="st1" points="114.7,135.3 114.7,140.8 113.9,141.3 113.8,141.3 109.1,138.7 			"/>
			<polygon class="st15" points="114.7,108.2 114.7,113.6 98.6,123 98.6,117.5 			"/>
			<polygon class="st13" points="114.7,102.7 114.7,108.2 98.6,117.5 98.6,112.2 98.6,112 103.8,109 103.8,109 103.9,109 
				110.1,105.5 			"/>
			<polygon class="st13" points="114.7,102.7 110.1,105.5 103.8,101.9 103.8,96.5 			"/>
			<polygon class="st11" points="109.1,138.7 113.8,141.3 109.1,144.1 109.1,144.1 82.3,128.5 82.3,123.1 87.7,126.3 93.2,129.3 
				98.6,132.5 99.7,133.2 104.5,135.9 			"/>
			<polygon class="st11" points="112.3,57.5 112.3,62.8 103.8,58 103.8,58 82.3,45.5 82.3,40.1 			"/>
			<polygon class="st13" points="112.3,52 112.3,57.5 82.3,40.1 82.3,34.6 			"/>
			<polygon class="st1" points="112.3,46.6 112.3,52 82.3,34.6 82.3,29.2 83.2,29.7 83.2,29.7 87.8,32.5 92.6,35.1 96,37.1 
				101.4,40.2 106.9,43.4 			"/>
			<polygon class="st11" points="112.3,35.7 112.3,46.6 106.9,43.4 106.9,43.3 106.9,32.5 			"/>
			<polygon class="st11" points="110.1,105.5 103.9,109 103.8,109 103.8,101.9 			"/>
			<polygon class="st11" points="109.3,68.9 109.3,84.1 103.9,87.2 103.8,87.2 103.8,65.9 			"/>
			<polygon class="st13" points="109.1,144.1 109.1,144.1 104.5,146.8 82.3,134 82.3,128.5 			"/>
			<polygon class="st15" points="106.9,32.5 106.9,43.3 106.9,43.4 101.4,40.2 101.4,14.1 103.8,15.5 106.9,17.2 106.9,17.2 
				106.9,21.6 106.9,27 			"/>
			<polygon class="st11" points="104.5,146.8 99.7,149.6 95,146.8 90.2,144.1 85.6,141.3 82.3,139.5 82.3,134 			"/>
			<polygon class="st14" points="101.4,14.1 101.4,40.2 96,37.1 96,33.2 96,27.7 96,22.2 96,16.9 96,10.9 			"/>
			<polygon class="st13" points="99.7,149.6 82.3,159.5 82.3,159.5 82.3,154.1 82.3,154.1 95,146.8 			"/>
			<polygon class="st1" points="98.6,128.4 98.6,132.5 93.2,129.3 93.2,115.2 98.6,112 98.6,112.2 98.6,117.5 98.6,123 			"/>
			<polygon class="st11" points="96,33.2 96,37.1 92.6,35.1 92.6,35.1 			"/>
			<polygon class="st13" points="96,27.7 96,33.2 92.6,35.1 92.6,35.1 87.8,32.5 			"/>
			<polygon class="st11" points="96,22.2 96,27.7 87.8,32.5 83.2,29.7 			"/>
			<polygon class="st13" points="96,16.9 96,22.2 83.2,29.7 83.2,29.7 82.3,29.2 82.3,24.8 85,23.2 90.5,20 			"/>
			<polygon class="st11" points="96,10.9 96,16.9 90.5,20 90.5,7.7 			"/>
			<polygon class="st15" points="95,146.8 82.3,154.1 82.3,154.1 82.3,148.8 90.2,144.1 90.2,144.1 			"/>
			<polygon class="st13" points="93.2,115.2 93.2,129.3 87.7,126.3 87.7,118.3 			"/>
			<polygon class="st15" points="90.5,7.7 90.5,20 85,23.2 85,4.7 			"/>
			<polygon class="st13" points="85.6,141.3 90.2,144.1 90.2,144.1 82.3,148.8 82.3,143.3 			"/>
			<polygon class="st15" points="87.7,118.3 87.7,126.3 82.3,123.1 82.3,121.5 			"/>
			<polygon class="st14" points="85.6,141.3 82.3,143.3 82.3,139.5 			"/>
			<polygon class="st11" points="85,4.7 85,23.2 82.3,24.8 82.3,3.1 			"/>
		</g>
	</g>
	<g id="XMLID_1_">
		<g>
			<polygon class="st16" points="74.3,144.9 74.3,167.1 68.9,164.1 68.9,148 			"/>
			<polygon class="st17" points="74.3,143.3 74.3,144.9 68.9,148 63.5,151 58,154.2 55,156 50.3,153.3 70.9,141.3 			"/>
			<polygon class="st17" points="74.3,137.9 74.3,143.3 70.9,141.3 66.2,138.7 61.5,135.9 66.3,133.2 66.3,133.2 			"/>
			<polygon class="st16" points="74.3,132.4 74.3,137.9 66.3,133.2 66.3,133.2 70.9,130.5 			"/>
			<polygon class="st17" points="74.3,128.5 74.3,132.4 70.9,130.5 			"/>
			<polygon class="st16" points="74.3,123.1 74.3,128.5 74.3,128.5 70.9,130.5 66.3,133.2 61.5,135.9 40.9,147.8 36.2,145.2 
				36.4,145 			"/>
			<polygon class="st17" points="74.3,121.5 74.3,123.1 36.4,145 36.2,145.2 31.7,142.5 36.4,139.9 41.3,137.2 46.1,134.5 
				47.1,133.9 47.1,133.9 52.6,130.8 57.4,128.1 62.2,125.5 67,122.8 71.7,120.2 71.7,120 			"/>
			<polygon class="st18" points="74.3,40.1 74.3,45.5 67.8,49.3 67.8,49.3 63.1,46.5 			"/>
			<polygon class="st0" points="74.3,34.6 74.3,40.1 63.1,46.5 58.3,43.8 			"/>
			<polygon class="st18" points="74.3,29.2 74.3,34.6 58.3,43.8 58.3,43.8 53.6,41.1 58,38.5 58,38.5 63.5,35.4 69.1,32.1 			"/>
			<polygon class="st0" points="74.3,3 74.3,29.2 69.1,32.1 68.9,32 68.9,6 			"/>
			<polygon class="st16" points="71.7,120 71.7,120.2 67,122.8 52.6,114.4 52.6,109 			"/>
			<polygon class="st16" points="70.9,141.3 50.3,153.3 45.7,150.5 66.2,138.7 66.2,138.7 			"/>
			<polygon class="st17" points="68.9,32 69.1,32.1 63.5,35.4 63.5,9.2 68.9,6 			"/>
			<polygon class="st17" points="68.9,148 68.9,164.1 63.5,160.9 63.5,160.9 63.5,151 			"/>
			<polygon class="st17" points="67.8,49.3 67.8,49.3 63.1,51.9 34.8,35.7 30.1,32.9 26.4,30.8 26.2,30.6 31,28 31.2,28.1 
				53.6,41.1 58.3,43.8 58.3,43.8 63.1,46.5 			"/>
			<polygon class="st12" points="67,122.8 62.2,125.5 52.6,119.9 52.6,114.4 			"/>
			<polygon class="st17" points="66.2,138.7 66.2,138.7 45.7,150.5 40.9,147.8 61.5,135.9 			"/>
			<polygon class="st12" points="63.5,160.9 63.5,160.9 58,157.7 58,154.2 63.5,151 			"/>
			<polygon class="st18" points="63.5,9.2 63.5,35.4 58,38.5 58,33 58,27.7 58,22.2 58,16.8 58,12.4 			"/>
			<polygon class="st18" points="63.1,51.9 58.3,54.7 53.5,51.9 48.9,49.3 44.2,46.5 39.5,43.8 34.8,41.1 30.1,38.3 34.8,35.7 			
				"/>
			<polygon class="st12" points="62.2,125.5 57.4,128.1 52.6,125.4 52.6,119.9 			"/>
			<polygon class="st0" points="58.3,54.7 52.6,58 52.6,58 30.9,70.5 30.9,65.1 53.5,52 53.5,51.9 			"/>
			<polygon class="st17" points="58,154.2 58,157.7 55,156 			"/>
			<polygon class="st0" points="58,33 58,38.5 58,38.5 58,38.5 53.4,35.8 			"/>
			<polygon class="st12" points="58,27.7 58,33 53.4,35.8 48.6,33 			"/>
			<polygon class="st0" points="58,22.2 58,27.7 48.6,33 43.9,30.4 			"/>
			<polygon class="st12" points="58,16.8 58,22.2 43.9,30.4 39.3,27.7 			"/>
			<polygon class="st0" points="58,12.4 58,16.8 39.3,27.7 35.4,25.4 			"/>
			<polygon class="st18" points="58,38.5 58,38.5 53.6,41.1 31.2,28.1 31,28 35.4,25.4 39.3,27.7 43.9,30.4 48.6,33 53.4,35.8 			
				"/>
			<polygon class="st16" points="57.4,128.1 52.6,130.8 52.6,125.4 			"/>
			<polygon class="st12" points="53.5,51.9 53.5,52 30.9,65.1 30.9,59.6 48.9,49.3 48.9,49.3 			"/>
			<polygon class="st17" points="52.6,125.4 52.6,130.8 47.1,133.9 47.1,77.5 47.1,77.5 52.6,74.4 52.6,74.4 52.6,109 52.6,114.4 
				52.6,119.9 			"/>
			<polygon class="st16" points="52.6,68.9 52.6,74.4 52.6,74.4 47.1,77.5 41.8,80.6 36.4,83.7 30.2,87.3 30.2,87.3 25.6,84.5 			
				"/>
			<polygon class="st0" points="25.4,79.2 30.9,76 52.6,63.5 52.6,68.9 25.6,84.5 20.8,81.8 			"/>
			<polygon class="st16" points="52.6,58 52.6,63.5 30.9,76 30.9,70.5 			"/>
			<polygon class="st0" points="48.9,49.3 48.9,49.3 30.9,59.6 30.9,54.2 44.2,46.5 			"/>
			<polygon class="st0" points="47.1,133.9 47.1,133.9 46.1,134.5 41.8,132 41.8,80.6 41.8,80.6 47.1,77.5 47.1,77.5 			"/>
			<polygon class="st17" points="46.1,134.5 41.3,137.2 16.9,123.1 16.9,117.6 20,119.4 25.4,122.6 30.9,125.8 36.4,128.8 41.8,132 
							"/>
			<polygon class="st16" points="44.2,46.5 30.9,54.2 30.9,48.9 39.5,43.8 			"/>
			<polygon class="st12" points="41.8,80.6 41.8,132 36.4,128.8 36.4,117.9 36.4,112.6 36.4,107.1 36.4,101.7 36.4,96.2 36.4,90.8 
				36.4,89.2 36.4,83.8 36.4,83.7 			"/>
			<polygon class="st16" points="41.3,137.2 36.4,139.9 36.4,139.7 16.9,128.5 16.9,123.1 			"/>
			<polygon class="st0" points="39.5,43.8 30.9,48.9 25.4,51.9 20,55.1 16.9,56.8 16.9,51.4 34.8,41.1 			"/>
			<polygon class="st17" points="36.4,139.7 36.4,139.9 31.7,142.5 16.9,134 16.9,128.5 			"/>
			<polygon class="st17" points="36.4,117.9 36.4,128.8 30.9,125.8 30.9,125.8 30.9,114.8 			"/>
			<polygon class="st0" points="25.4,111.6 20,108.6 16.9,106.9 16.9,101.4 36.4,112.6 36.4,117.9 30.9,114.8 			"/>
			<polygon class="st16" points="36.4,107.1 36.4,112.6 16.9,101.4 16.9,95.9 			"/>
			<polygon class="st0" points="36.4,101.7 36.4,107.1 16.9,95.9 16.9,90.5 			"/>
			<polygon class="st16" points="36.4,96.2 36.4,101.7 16.9,90.5 16.9,85 			"/>
			<polygon class="st12" points="36.4,90.8 36.4,96.2 16.9,85 16.9,84 20,82.2 20.8,81.8 25.6,84.5 30.2,87.3 30.2,87.3 			"/>
			<polygon class="st12" points="36.4,89.2 36.4,90.8 30.2,87.3 36.4,83.7 36.4,83.8 			"/>
			<polygon class="st0" points="34.8,35.7 30.1,38.3 16.9,45.9 16.9,40.5 30.1,32.9 			"/>
			<polygon class="st17" points="34.8,41.1 16.9,51.4 16.9,45.9 30.1,38.3 			"/>
			<polygon class="st16" points="30.9,125.8 30.9,125.8 25.4,122.6 25.4,122.6 25.4,111.6 30.9,114.8 			"/>
			<polygon class="st12" points="30.9,70.5 30.9,76 25.4,79.2 25.4,51.9 30.9,48.9 30.9,54.2 30.9,59.6 30.9,65.1 			"/>
			<polygon class="st18" points="26.4,30.8 30.1,32.9 16.9,40.5 16.9,36.1 26.2,30.6 			"/>
			<polygon class="st17" points="25.4,122.6 25.4,122.6 20,119.4 20,108.6 25.4,111.6 			"/>
			<polygon class="st16" points="25.4,51.9 25.4,79.2 20.8,81.8 20,82.2 20,55.1 			"/>
			<polygon class="st16" points="20,108.6 20,119.4 16.9,117.6 16.9,106.9 			"/>
			<polygon class="st12" points="20,55.1 20,82.2 16.9,84 16.9,56.8 			"/>
		</g>
	</g>
</g>
</svg>
