<?xml version="1.0" encoding="utf-8"?>
<!-- Generator: Adobe Illustrator 18.1.1, SVG Export Plug-In . SVG Version: 6.00 Build 0)  -->
<!DOCTYPE svg PUBLIC "-//W3C//DTD SVG 1.1//EN" "http://www.w3.org/Graphics/SVG/1.1/DTD/svg11.dtd">
<svg version="1.1" id="Layer_2" xmlns="http://www.w3.org/2000/svg" xmlns:xlink="http://www.w3.org/1999/xlink" x="0px" y="0px"
	 viewBox="-48.6 229.1 714.2 266.7" enable-background="new -48.6 229.1 714.2 266.7" xml:space="preserve">
<g>
	<path fill="none" stroke="#F15E4E" stroke-miterlimit="10" d="M244.1,387c-8.6,14.7-24.4,24.9-42.9,24.9c-27.1,0-49.3-22-49.3-49.3
		c0-27.1,22-49.3,49.3-49.3c18.5,0,34.6,10.2,43.1,25.5"/>
	<path fill="none" stroke="#1D7B96" stroke-linecap="round" stroke-miterlimit="10" d="M235.8,387.2c-7.8,10.7-20.1,17.7-34.3,17.7
		c-23.3,0-42.3-19-42.3-42.3s19-42.3,42.3-42.3c14.5,0,27.3,7.5,35.1,18.5"/>
	<path fill="none" stroke="#1D7B96" stroke-linecap="round" stroke-miterlimit="10" d="M250,449.9c14.7-3.8,24.1-12.3,30.3-21.7
		 M97,471.1c10.4-4,21.2-9.6,32.2-16.9 M-27.5,402.5c5.1,22.5,15,41.5,28.4,53.6c6.4,5.9,13.4,10.4,20.4,13.9 M80.4,249
		c-29.7-7-56.5-0.3-79.6,20.1C-15.8,283.8-27,309.8-30.5,339 M285.4,298c-10.4-15.5-26.5-21.7-41-23.8c-20.1-2.9-31.1,1.9-42.9,7
		c-3.8,1.6-7.8,3.5-11.8,4.8"/>
	<path fill="none" stroke="#F15E4E" stroke-width="2.3" stroke-linecap="round" stroke-linejoin="round" stroke-miterlimit="10" d="
		M544.5,349.5"/>
	
		<line fill="none" stroke="#F15E4E" stroke-width="2.3" stroke-linecap="round" stroke-miterlimit="10" x1="544.5" y1="346.5" x2="544.5" y2="383"/>
	
		<line fill="none" stroke="#1D7B96" stroke-width="2.3" stroke-linecap="round" stroke-miterlimit="10" x1="222.2" y1="387.5" x2="544.5" y2="380"/>
	<g>
		<g>
			<path fill="#1D7B96" d="M230.7,362.6c0,16.3-13.1,29.5-29.5,29.5s-29.5-13.1-29.5-29.5c0-16.3,13.1-29.5,29.5-29.5
				S230.7,346.3,230.7,362.6 M236.9,362.6c0-19.6-16.1-35.6-35.6-35.6s-35.6,16.1-35.6,35.6s16.1,35.6,35.6,35.6
				S236.9,382.2,236.9,362.6L236.9,362.6z"/>
		</g>
	</g>
	
		<line fill="none" stroke="#1D7B96" stroke-width="2.3" stroke-linecap="round" stroke-miterlimit="10" x1="223" y1="337.9" x2="301.5" y2="340.6"/>
	<g>
		<path fill="#F15E4E" d="M628.9,352.4L628.9,352.4c0,0.8-0.3,1.3-0.8,1.9l-1.9,1.3l-58.7,2.1c-1.9,0-3.5-0.3-5.1-1.1l-1.6-0.8
			c-0.5-0.3-0.8-1.1-0.8-1.1c0-0.3,0-0.8,0.5-1.1l1.1-0.8c1.9-1.6,4-2.4,6.4-2.4l58.4-1.1l1.6,1.3
			C628.6,351.1,628.9,351.6,628.9,352.4 M631.6,352.4c0-1.3-0.5-2.9-1.9-3.8l-2.4-1.9l-59.5,1.1c-2.9,0-5.9,1.1-8,2.9l-1.1,0.8
			c-1.1,0.8-1.3,1.9-1.3,2.9c0,1.3,0.8,2.9,2.1,3.5l1.6,0.8c1.9,1.1,4.3,1.6,6.4,1.3l59.7-2.1l2.4-1.9
			C631,355.4,631.6,353.8,631.6,352.4L631.6,352.4z"/>
	</g>
	<g>
		<path fill="#F15E4E" d="M628.9,377.3c0,0.8-0.3,1.3-0.8,1.9l-1.6,1.3l-58.4-1.1c-2.4,0-4.6-0.8-6.4-2.4l-1.1-0.8
			c-0.3-0.3-0.5-0.8-0.5-1.1c0-0.3,0-0.8,0.8-1.1l1.6-0.8c1.6-0.8,3.2-1.1,5.1-1.1l58.7,2.1l1.9,1.3
			C628.6,376,628.9,376.8,628.9,377.3 M631.6,377.3c0-1.3-0.5-2.9-1.9-4l-2.4-1.9l-59.7-2.1c-2.1,0-4.6,0.5-6.4,1.3l-1.6,0.8
			c-1.3,0.8-2.1,2.1-2.1,3.5c0,1.1,0.5,2.1,1.3,2.9l1.1,0.8c2.1,1.9,5.1,2.9,8,2.9l59.5,1.1l2.4-1.9
			C631,380.3,631.6,378.9,631.6,377.3L631.6,377.3z"/>
	</g>
	<path fill="none" stroke="#F15E4E" stroke-width="2.3" stroke-linecap="round" stroke-miterlimit="10" d="M640.9,340.9
		c0,0,1.3-5.6-2.4-7c-3.8-1.3-4,7.2-4,7.2L640.9,340.9z"/>
	<polyline fill="none" stroke="#F15E4E" stroke-width="2.3" stroke-linecap="round" stroke-miterlimit="10" points="639.3,336.3 
		627.8,336.3 625.9,341.2 	"/>
	<path fill="none" stroke="#F15E4E" stroke-width="2.3" stroke-linecap="round" stroke-miterlimit="10" d="M610.7,339.8
		c0,0,1.3-5.6-2.4-7c-3.8-1.3-4,7.2-4,7.2L610.7,339.8z"/>
	<polyline fill="none" stroke="#F15E4E" stroke-width="2.3" stroke-linecap="round" stroke-miterlimit="10" points="609.9,336.6 
		598.3,336.6 595.9,342.2 	"/>
	<path fill="none" stroke="#F15E4E" stroke-width="2.3" stroke-linecap="round" stroke-miterlimit="10" d="M583.9,340.9
		c0,0,1.3-5.6-2.4-7c-3.8-1.3-4,7.2-4,7.2L583.9,340.9z"/>
	<polyline fill="none" stroke="#F15E4E" stroke-width="2.3" stroke-linecap="round" stroke-miterlimit="10" points="582.3,337.4 
		571,337.4 568.6,343 	"/>
	<path fill="none" stroke="#F15E4E" stroke-width="2.3" stroke-linecap="round" stroke-miterlimit="10" d="M641.2,389.1
		c0,0,1.3,5.6-2.4,7s-4-7.2-4-7.2L641.2,389.1z"/>
	<polyline fill="none" stroke="#F15E4E" stroke-width="2.3" stroke-linecap="round" stroke-miterlimit="10" points="639.3,393.4 
		628.1,393.4 625.9,388.6 	"/>
	<path fill="none" stroke="#F15E4E" stroke-width="2.3" stroke-linecap="round" stroke-miterlimit="10" d="M610.9,390.2
		c0,0,1.3,5.6-2.4,7c-3.8,1.3-4-7.2-4-7.2L610.9,390.2z"/>
	<polyline fill="none" stroke="#F15E4E" stroke-width="2.3" stroke-linecap="round" stroke-miterlimit="10" points="609.9,393.4 
		598.6,393.4 596.2,387.5 	"/>
	<path fill="none" stroke="#F15E4E" stroke-width="2.3" stroke-linecap="round" stroke-miterlimit="10" d="M584.1,389.1
		c0,0,1.3,5.6-2.4,7c-3.8,1.3-4-7.2-4-7.2L584.1,389.1z"/>
	<polyline fill="none" stroke="#F15E4E" stroke-width="2.3" stroke-linecap="round" stroke-miterlimit="10" points="582.5,392.3 
		571,392.3 568.9,386.7 	"/>
	
		<polygon fill="none" stroke="#F15E4E" stroke-width="2.3" stroke-linecap="round" stroke-linejoin="round" stroke-miterlimit="10" points="
		27.7,322.9 27.7,362.6 27.7,402.2 41,392.1 41,362.6 41,333.1 	"/>
	<polyline fill="none" stroke="#F15E4E" stroke-linecap="round" stroke-miterlimit="10" points="34.4,339.6 544.5,355.9 
		584.4,342.2 	"/>
	<polyline fill="none" stroke="#F15E4E" stroke-linecap="round" stroke-miterlimit="10" points="34.4,348.4 544.5,359.6 
		607.7,340.1 	"/>
	<polyline fill="none" stroke="#F15E4E" stroke-linecap="round" stroke-miterlimit="10" points="34.4,357 544.5,362.6 644.4,341.2 	
		"/>
	<polyline fill="none" stroke="#F15E4E" stroke-linecap="round" stroke-miterlimit="10" points="34.4,383.8 544.5,373.8 
		582.3,386.7 	"/>
	<polyline fill="none" stroke="#F15E4E" stroke-linecap="round" stroke-miterlimit="10" points="34.4,375.2 544.5,369.6 
		609.9,387.5 	"/>
	<polyline fill="none" stroke="#F15E4E" stroke-linecap="round" stroke-miterlimit="10" points="34.4,366.3 544.5,365.5 
		645.8,387.5 	"/>
	<path fill="none" stroke="#F15E4E" stroke-width="2.3" stroke-linecap="round" stroke-linejoin="round" stroke-miterlimit="10" d="
		M307.4,401.7c0,0-6.2,57.1-60.8,65.1c-54.7,8-59.7-33-101-4.6c-41,28.7-101.8,53.1-155.4,5.6c-26.3-23.3-38.8-65.1-37.5-105.6"/>
	<path fill="none" stroke="#F15E4E" stroke-width="2.3" stroke-linecap="round" stroke-linejoin="round" stroke-miterlimit="10" d="
		M-47.4,362.6c-1.3-40.2,11.3-82,37.5-105.6c53.6-47.4,114.4-23,155.4,5.6c41,28.7,46.4-12.6,101-4.6s66.2,52.8,66.2,83.6l231.8,7.5
		"/>
	<path fill="none" stroke="#F15E4E" stroke-width="2.3" stroke-linecap="round" stroke-miterlimit="10" d="M544.5,349.5
		c0,0,11.5-0.3,17.1-6.2l84.7-2.1l0,0c1.3-2.7,5.4-2.1,5.9,0.8c1.1,4.3,3.5,11.5,8.3,15.5c7.2,5.6,2.1,7.5,2.1,7.5"/>
	<path fill="none" stroke="#F15E4E" stroke-width="2.3" stroke-linecap="round" stroke-miterlimit="10" d="M544.5,380
		c0,0,11.5,0.3,17.1,6.2l84.7,2.1l0,0c1.3,2.7,5.4,2.1,5.9-0.8c1.1-4.3,3.5-11.5,8.3-15.5c7.2-5.6,2.1-7.5,2.1-7.5"/>
</g>
</svg>
