<?xml version="1.0" encoding="utf-8"?>
<!-- Generator: Adobe Illustrator 18.1.1, SVG Export Plug-In . SVG Version: 6.00 Build 0)  -->
<!DOCTYPE svg PUBLIC "-//W3C//DTD SVG 1.1//EN" "http://www.w3.org/Graphics/SVG/1.1/DTD/svg11.dtd">
<svg version="1.1" id="Layer_1" xmlns="http://www.w3.org/2000/svg" xmlns:xlink="http://www.w3.org/1999/xlink" x="0px" y="0px"
	 viewBox="0 0 500 500" style="enable-background:new 0 0 500 500;" xml:space="preserve">
<style type="text/css">
	.st0{fill:#F15F4F;}
	.st1{fill:#167A97;}
	.st2{fill:none;}
	.st3{fill:none;stroke:#F15F4F;stroke-miterlimit:10;}
	.st4{fill:none;stroke:#217C97;stroke-linecap:round;stroke-miterlimit:10;}
	.st5{fill:none;stroke:#F15F4F;stroke-width:2.3;stroke-linecap:round;stroke-linejoin:round;stroke-miterlimit:10;}
	.st6{fill:none;stroke:#F15F4F;stroke-width:2.3;stroke-linecap:round;stroke-miterlimit:10;}
	.st7{fill:none;stroke:#217C97;stroke-width:2.3;stroke-linecap:round;stroke-miterlimit:10;}
	.st8{fill:#217C97;}
	.st9{fill:none;stroke:#F15F4F;stroke-linecap:round;stroke-miterlimit:10;}
	.st10{fill:none;stroke:#F15F4F;stroke-width:1.4409;stroke-linecap:round;stroke-miterlimit:10;}
	.st11{fill:#216882;}
	.st12{fill:#E25840;}
	.st13{fill:#143E4C;}
	.st14{fill:#3B9FBD;}
	.st15{fill:#1C5368;}
	.st16{fill:#CC4C37;}
	.st17{fill:#D5533B;}
	.st18{fill:#F06A4A;}
	.st19{fill:none;stroke:#167A97;stroke-width:3;stroke-miterlimit:10;}
	.st20{fill:none;stroke:#F15F4F;stroke-width:3;stroke-linejoin:round;stroke-miterlimit:10;}
	.st21{fill:none;stroke:#F15F4F;stroke-width:3;stroke-linecap:round;stroke-miterlimit:10;}
	.st22{fill:#F05144;}
	.st23{opacity:0.5;}
	.st24{fill:#FFFFFF;}
	.st25{fill:none;stroke:#F05144;stroke-width:0.9856;stroke-miterlimit:10;}
	.st26{fill:#FFFFFF;stroke:#F05144;stroke-width:1.3141;stroke-miterlimit:10;}
	.st27{opacity:0.49;}
	.st28{fill:none;stroke:#F05144;stroke-width:1.9711;stroke-miterlimit:10;}
	.st29{opacity:0.51;}
	.st30{fill:none;stroke:#7E2419;stroke-width:1.3141;stroke-linecap:round;stroke-linejoin:round;stroke-miterlimit:10;}
	.st31{opacity:0.52;}
	.st32{fill:url(#SVGID_4_);}
	.st33{opacity:0.3;fill:url(#SVGID_5_);enable-background:new    ;}
	.st34{opacity:0.3;fill:url(#SVGID_6_);enable-background:new    ;}
	.st35{opacity:0.3;}
	.st36{fill:url(#SVGID_7_);}
	.st37{fill:url(#SVGID_8_);}
	.st38{opacity:0.3;fill:url(#SVGID_9_);enable-background:new    ;}
	.st39{opacity:0.3;fill:url(#SVGID_10_);enable-background:new    ;}
	.st40{fill:url(#SVGID_11_);}
	.st41{fill:url(#SVGID_12_);}
	.st42{opacity:0.3;fill:url(#SVGID_13_);enable-background:new    ;}
	.st43{opacity:0.3;fill:url(#SVGID_14_);enable-background:new    ;}
	.st44{fill:url(#SVGID_15_);}
	.st45{fill:#F15F4E;}
	.st46{clip-path:url(#SVGID_17_);}
	.st47{fill:none;stroke:#399DBB;stroke-width:2.5;stroke-linecap:round;stroke-linejoin:round;stroke-miterlimit:10;}
	.st48{fill:#EB4D26;}
	.st49{fill:none;stroke:#EB4D26;stroke-width:0.5;stroke-linecap:round;stroke-linejoin:round;stroke-miterlimit:10;}
	.st50{fill:#399DBB;}
</style>
<g>
	<g>
		<path class="st48" d="M138.9,338.1H95.2c-1.7,0-3-1.3-3-3V164.9c0-1.7,1.3-3,3-3h213.8c1.7,0,3,1.3,3,3c0,1.7-1.3,3-3,3H98.2
			v164.2h40.7c1.7,0,3,1.3,3,3C141.9,336.7,140.6,338.1,138.9,338.1z"/>
	</g>
	<g>
		<path class="st1" d="M370.3,338.1H190.6c-1.7,0-3-1.3-3-3c0-1.7,1.3-3,3-3h176.8v-30.8c0-1.7,1.3-3,3-3h36.4v-96.7h-36.4
			c-1.7,0-3-1.3-3-3v-30.8h-6.6c-1.7,0-3-1.3-3-3c0-1.7,1.3-3,3-3h9.6c1.7,0,3,1.3,3,3v30.8h36.4c1.7,0,3,1.3,3,3v102.9
			c0,1.7-1.3,3-3,3h-36.4v30.8C373.3,336.7,372,338.1,370.3,338.1z"/>
	</g>
	<g>
		<path class="st1" d="M370.3,338.1H190.6c-1.3,0-2.3-0.7-2.6-2c-0.3-1.3-0.3-2.3,0.7-3.3l55.6-55.6l0,0l114.5-114.5
			c0.7-0.7,1.3-1,2-1h9.6c1.7,0,3,1.3,3,3v170.1C373.3,336.7,372,338.1,370.3,338.1z M197.9,332.1h169.5V167.9H362L276,254
			c0,0.3,0,0.7,0,0.7v55.3c0,1.7-1.3,3-3,3c-1.7,0-3-1.3-3-3v-50l-20.5,20.5v29.5c0,1.7-1.3,3-3,3c-1.7,0-3-1.3-3-3v-23.2L225,304.9
			v5c0,1.7-1.3,3-3,3c-1.3,0-2.6-1-3-2L197.9,332.1z"/>
	</g>
	<g>
		<path class="st1" d="M138.9,338.1H95.2c-1.7,0-3-1.3-3-3V164.9c0-1.7,1.3-3,3-3h213.8c1.3,0,2.3,0.7,2.6,2c0.3,1,0.3,2.3-0.7,3.3
			l-87.4,87.4l0,0l-83.1,83.1C140.6,337.7,139.6,338.1,138.9,338.1z M98.6,332.1H138l30.1-30.1V190.1c0-1.7,1.3-3,3-3s3,1.3,3,3V296
			l18.2-18.2v-87.7c0-1.7,1.3-3,3-3s3,1.3,3,3v81.8l20.5-20.5v-37.7c0-1.7,1.3-3,3-3c1.7,0,3,1.3,3,3V245l76.8-76.8H97.9v163.9H98.6
			z M144.2,312.9c-1.7,0-3-1.3-3-3V189.8c0-1.7,1.3-3,3-3c1.7,0,3,1.3,3,3v120.2C147.2,311.6,145.9,312.9,144.2,312.9z M119.7,312.9
			c-1.7,0-3-1.3-3-3V189.8c0-1.7,1.3-3,3-3s3,1.3,3,3v120.2C122.7,311.6,121.4,312.9,119.7,312.9z"/>
	</g>
	<g>
		<path class="st49" d="M190.6,335.1"/>
	</g>
	<g>
		<path class="st49" d="M138.9,335.1"/>
	</g>
	<g>
		<path class="st49" d="M309.4,164.9"/>
	</g>
	<g>
		<path class="st49" d="M360.7,164.9"/>
	</g>
	<g>
		<path class="st50" d="M195.2,279.5c0,0-0.3,0-0.3-0.3c-0.3-0.3-0.3-0.7,0-1l26.8-26.8c0.3-0.3,0.7-0.3,1,0s0.3,0.7,0,1l-26.8,26.8
			C195.5,279.5,195.2,279.5,195.2,279.5z"/>
	</g>
	<g>
		<path class="st50" d="M222,252.6c0,0-0.3,0-0.3-0.3c-0.3-0.3-0.3-0.7,0-1l87.4-87.4c0.3-0.3,0.7-0.3,1,0c0.3,0.3,0.3,0.7,0,1
			l-87.4,87.4C222.4,252.6,222,252.6,222,252.6z"/>
	</g>
	<g>
		<path class="st50" d="M246.2,280.1c0,0-0.3,0-0.3-0.3c-0.3-0.3-0.3-0.7,0-1l114.5-114.5c0.3-0.3,0.7-0.3,1,0c0.3,0.3,0.3,0.7,0,1
			L246.9,279.8C246.5,280.1,246.5,280.1,246.2,280.1z"/>
	</g>
	<g>
		<path class="st50" d="M190.6,335.7c0,0-0.3,0-0.3-0.3c-0.3-0.3-0.3-0.7,0-1l31.4-31.4c0.3-0.3,0.7-0.3,1,0c0.3,0.3,0.3,0.7,0,1
			l-31.4,31.4C190.9,335.7,190.6,335.7,190.6,335.7z"/>
	</g>
	<g>
		<path class="st0" d="M249.8,465.8c-51,0-100.3-17.9-139-50.6c-4.6-4-9.3-8.3-13.6-12.6c-1.3-1.3-1.3-3,0-4.3L396.1,99.4
			c-3.6-3.3-7.3-6.6-11.3-9.9c-37.7-31.8-85.7-49.3-135.1-49.3C134,40.1,40,134.1,40,250c0,34.4,8.6,68.5,24.8,99
			c0.7,1.3,0.3,3.3-1.3,4c-1.3,0.7-3.3,0.3-4-1.3C42.9,320.5,34,285.4,34,250c0-119.2,97-215.8,215.8-215.8
			c51,0,100.3,17.9,139,50.6c4.6,4,9.3,8.3,13.6,12.6c1.3,1.3,1.3,3,0,4.3L103.5,400.6c3.6,3.3,7.3,6.6,11.3,9.9
			c37.7,31.8,85.7,49.3,135.1,49.3c115.9,0,209.9-94,209.9-209.9c0-39.1-10.9-77.1-31.1-109.9c-1-1.3-0.3-3.3,1-4.3
			c1.3-1,3.3-0.3,4.3,1C454.7,170.9,466,209.9,466,250C466,369.2,369,465.8,249.8,465.8z"/>
	</g>
</g>
</svg>
