<?xml version="1.0" encoding="utf-8"?>
<!-- Generator: Adobe Illustrator 18.1.1, SVG Export Plug-In . SVG Version: 6.00 Build 0)  -->
<!DOCTYPE svg PUBLIC "-//W3C//DTD SVG 1.1//EN" "http://www.w3.org/Graphics/SVG/1.1/DTD/svg11.dtd">
<svg version="1.1" id="Layer_1" xmlns="http://www.w3.org/2000/svg" xmlns:xlink="http://www.w3.org/1999/xlink" x="0px" y="0px"
	 viewBox="0 0 500 500" style="enable-background:new 0 0 500 500;" xml:space="preserve">
<style type="text/css">
	.st0{fill:#F15F4F;}
	.st1{fill:#167A97;}
	.st2{fill:none;}
	.st3{fill:none;stroke:#F15F4F;stroke-miterlimit:10;}
	.st4{fill:none;stroke:#217C97;stroke-linecap:round;stroke-miterlimit:10;}
	.st5{fill:none;stroke:#F15F4F;stroke-width:2.3;stroke-linecap:round;stroke-linejoin:round;stroke-miterlimit:10;}
	.st6{fill:none;stroke:#F15F4F;stroke-width:2.3;stroke-linecap:round;stroke-miterlimit:10;}
	.st7{fill:none;stroke:#217C97;stroke-width:2.3;stroke-linecap:round;stroke-miterlimit:10;}
	.st8{fill:#217C97;}
	.st9{fill:none;stroke:#F15F4F;stroke-linecap:round;stroke-miterlimit:10;}
	.st10{fill:none;stroke:#F15F4F;stroke-width:1.4409;stroke-linecap:round;stroke-miterlimit:10;}
	.st11{fill:#216882;}
	.st12{fill:#E25840;}
	.st13{fill:#143E4C;}
	.st14{fill:#3B9FBD;}
	.st15{fill:#1C5368;}
	.st16{fill:#CC4C37;}
	.st17{fill:#D5533B;}
	.st18{fill:#F06A4A;}
	.st19{fill:none;stroke:#167A97;stroke-width:3;stroke-miterlimit:10;}
	.st20{fill:none;stroke:#F15F4F;stroke-width:3;stroke-linejoin:round;stroke-miterlimit:10;}
	.st21{fill:none;stroke:#F15F4F;stroke-width:3;stroke-linecap:round;stroke-miterlimit:10;}
	.st22{fill:#F05144;}
	.st23{opacity:0.5;}
	.st24{fill:#FFFFFF;}
	.st25{fill:none;stroke:#F05144;stroke-width:0.9856;stroke-miterlimit:10;}
	.st26{fill:#FFFFFF;stroke:#F05144;stroke-width:1.3141;stroke-miterlimit:10;}
	.st27{opacity:0.49;}
	.st28{fill:none;stroke:#F05144;stroke-width:1.9711;stroke-miterlimit:10;}
	.st29{opacity:0.51;}
	.st30{fill:none;stroke:#7E2419;stroke-width:1.3141;stroke-linecap:round;stroke-linejoin:round;stroke-miterlimit:10;}
	.st31{opacity:0.52;}
	.st32{fill:url(#SVGID_4_);}
	.st33{opacity:0.3;fill:url(#SVGID_5_);enable-background:new    ;}
	.st34{opacity:0.3;fill:url(#SVGID_6_);enable-background:new    ;}
	.st35{opacity:0.3;}
	.st36{fill:url(#SVGID_7_);}
	.st37{fill:url(#SVGID_8_);}
	.st38{opacity:0.3;fill:url(#SVGID_9_);enable-background:new    ;}
	.st39{opacity:0.3;fill:url(#SVGID_10_);enable-background:new    ;}
	.st40{fill:url(#SVGID_11_);}
	.st41{fill:url(#SVGID_12_);}
	.st42{opacity:0.3;fill:url(#SVGID_13_);enable-background:new    ;}
	.st43{opacity:0.3;fill:url(#SVGID_14_);enable-background:new    ;}
	.st44{fill:url(#SVGID_15_);}
	.st45{fill:#F15F4E;}
	.st46{clip-path:url(#SVGID_17_);}
	.st47{fill:none;stroke:#399DBB;stroke-width:2.5;stroke-linecap:round;stroke-linejoin:round;stroke-miterlimit:10;}
	.st48{fill:#EB4D26;}
	.st49{fill:none;stroke:#EB4D26;stroke-width:0.5;stroke-linecap:round;stroke-linejoin:round;stroke-miterlimit:10;}
	.st50{fill:#399DBB;}
</style>
<g>
	<g>
		<path class="st45" d="M339,364.9L339,364.9c-2,0-3.5-1.7-3.5-3.5c0.3-26.4,0.9-65.2,0.9-100.6s-0.6-64.4-1.4-79.4
			c-5.8-96-15.7-132.8-59.4-148.4c-1.7-0.6-2.9-2.6-2-4.6c0.6-1.7,2.6-2.9,4.6-2c50.7,17.7,58.8,62.9,64.4,154.5
			c0.9,15.4,1.4,44.6,1.4,80c0,35.4-0.3,74.5-0.9,100.9C342.5,363.4,341,364.9,339,364.9z"/>
	</g>
	<g>
		<path class="st45" d="M376.4,459.7c-0.9,0-1.7-0.3-2.6-1.2L190.6,275.3c-0.6-0.6-1.2-1.4-1.2-2.6v-57.4c0-1.4,0.9-2.6,2.3-3.2
			c1.4-0.6,2.9-0.3,3.8,0.9L341,358.5c1.4,1.4,1.4,3.5,0,4.9c-1.4,1.4-3.5,1.4-4.9,0L196.4,223.7v47.3l176.3,176.3l0.9-39.4
			c0.3-7.5,2-181.8,0-231.6c-3.2-85.2-8.4-127.8-41.5-150.7c-1.7-1.2-2-3.2-0.9-4.9c1.2-1.7,3.2-2,4.9-0.9
			C371.8,44.2,377,88,380.5,175.8c2,49.9,0.3,224.4,0,231.9l-0.9,47.5c0,1.4-0.9,2.6-2.3,3.2C377.6,459.7,377,459.7,376.4,459.7z"/>
	</g>
	<g>
		<path class="st45" d="M165.1,480.5c-0.6,0-1.4-0.3-2-0.6c-35.4-24.6-40.9-68.4-44.4-156.3c-2-50.4-0.3-224.4,0-231.9l0.9-47.5
			c0-1.4,0.9-2.6,2.3-3.2c1.4-0.6,2.9-0.3,3.8,0.9l183.2,183.2c0.6,0.6,1.2,1.4,1.2,2.6v56.8c0,1.4-0.9,2.6-2.3,3.2
			c-1.4,0.6-2.9,0.3-3.8-0.9L164.2,147.4c-0.3,25.8-0.6,60.3-0.6,92.5c0,35.4,0.6,64.4,1.4,79.4c5.2,88.4,12.8,131.9,59.4,148.4
			c1.7,0.6,2.9,2.6,2,4.6c-0.6,1.7-2.6,2.9-4.6,2c-50.7-17.7-58.8-62.9-64.4-154.5c-0.9-15.4-1.4-44.4-1.4-80s0.3-74.5,0.9-100.9
			c0-1.4,0.9-2.6,2.3-3.2c1.4-0.6,2.9-0.3,3.8,0.9l139.7,139.7v-47.3L126.5,52.3l-0.9,39.4c-0.3,7.5-2,181.5,0,231.6
			c3.2,85.2,8.4,127.8,41.5,150.7c1.7,1.2,2,3.2,0.9,4.9C167.4,479.9,166.2,480.5,165.1,480.5z"/>
	</g>
	<g>
		<g>
			<path id="SVGID_1_" class="st0" d="M276.4,32.9c-0.3,0-0.9,0-1.2-0.3c-14.5-5.2-28.1-6.1-49.9-6.4c-5.2,0-19.1,0-37.4,0
				c-38.8,0-116.5,0.3-131,0.9c-2,0-3.5-1.4-3.8-3.5c0-2,1.4-3.5,3.5-3.8C71.1,19,148.8,19,188,19c18.3,0,32.2,0,37.4,0
				c22.6,0.3,36.8,1.4,52.2,7c1.7,0.6,2.9,2.6,2,4.6C279.3,32.1,277.8,32.9,276.4,32.9z"/>
		</g>
		<g>
			<path id="SVGID_2_" class="st0" d="M309.7,481.1c-17.1,0-30.4,0-35.4,0c-22.6-0.3-36.8-1.4-52.2-7c-1.7-0.6-2.9-2.6-2-4.6
				c0.6-1.7,2.6-2.9,4.6-2c14.5,5.2,28.1,6.1,49.9,6.4c18.6,0.3,149.6,0,168.4-0.9c17.7-0.9,30.1-13.3,31-31c1.2-22,1.2-365,0-382.4
				c-1.2-17.1-13.9-29.6-31-30.7c-20.9-1.2-89-2.3-108.1-2.3c-2,0-3.5-1.4-3.5-3.5s1.4-3.5,3.5-3.5c19.1,0,87.5,1.2,108.4,2.3
				c20.6,1.2,36.5,16.8,37.7,37.1c1.2,17.4,1.2,360.9,0,383.2c-1.2,21.2-16.5,36.8-37.7,37.7C429.4,480.8,355.8,481.1,309.7,481.1z"
				/>
		</g>
		<g>
			<path id="SVGID_3_" class="st0" d="M165.1,480.5c-3.5,0-84.9,0-108.4-1.4C36.1,477.9,20.1,462.3,19,442
				c-1.2-17.1-1.2-361.5,0-384.1c1.2-21.2,16.5-36.5,37.7-37.7c2,0,3.5,1.4,3.8,3.5c0,2-1.4,3.5-3.5,3.8c-17.7,0.9-30.1,13.3-31,31
				c-1.2,22.3-1.2,366.1,0,383.2s13.9,29.6,31,30.7c23.2,1.4,104.7,1.4,108.1,1.4c2,0,3.5,1.4,3.5,3.5
				C168.5,478.8,167.1,480.5,165.1,480.5z"/>
		</g>
		<g>
			<defs>
				<path id="SVGID_37_" d="M276.4,32.9c-0.3,0-0.9,0-1.2-0.3c-14.5-5.2-28.1-6.1-49.9-6.4c-5.2,0-19.1,0-37.4,0
					c-38.8,0-116.5,0.3-131,0.9c-2,0-3.5-1.4-3.8-3.5c0-2,1.4-3.5,3.5-3.8C71.1,19,148.8,19,188,19c18.3,0,32.2,0,37.4,0
					c22.6,0.3,36.8,1.4,52.2,7c1.7,0.6,2.9,2.6,2,4.6C279.3,32.1,277.8,32.9,276.4,32.9z"/>
			</defs>
			<clipPath id="SVGID_4_">
				<use xlink:href="#SVGID_37_"  style="overflow:visible;"/>
			</clipPath>
		</g>
		<g>
			<defs>
				<path id="SVGID_39_" d="M276.4,32.9c-0.3,0-0.9,0-1.2-0.3c-14.5-5.2-28.1-6.1-49.9-6.4c-5.2,0-19.1,0-37.4,0
					c-38.8,0-116.5,0.3-131,0.9c-2,0-3.5-1.4-3.8-3.5c0-2,1.4-3.5,3.5-3.8C71.1,19,148.8,19,188,19c18.3,0,32.2,0,37.4,0
					c22.6,0.3,36.8,1.4,52.2,7c1.7,0.6,2.9,2.6,2,4.6C279.3,32.1,277.8,32.9,276.4,32.9z"/>
			</defs>
			<defs>
				<path id="SVGID_40_" d="M309.7,481.1c-17.1,0-30.4,0-35.4,0c-22.6-0.3-36.8-1.4-52.2-7c-1.7-0.6-2.9-2.6-2-4.6
					c0.6-1.7,2.6-2.9,4.6-2c14.5,5.2,28.1,6.1,49.9,6.4c18.6,0.3,149.6,0,168.4-0.9c17.7-0.9,30.1-13.3,31-31
					c1.2-22,1.2-365,0-382.4c-1.2-17.1-13.9-29.6-31-30.7c-20.9-1.2-89-2.3-108.1-2.3c-2,0-3.5-1.4-3.5-3.5s1.4-3.5,3.5-3.5
					c19.1,0,87.5,1.2,108.4,2.3c20.6,1.2,36.5,16.8,37.7,37.1c1.2,17.4,1.2,360.9,0,383.2c-1.2,21.2-16.5,36.8-37.7,37.7
					C429.4,480.8,355.8,481.1,309.7,481.1z"/>
			</defs>
			<clipPath id="SVGID_5_">
				<use xlink:href="#SVGID_39_"  style="overflow:visible;"/>
			</clipPath>
			<clipPath id="SVGID_6_" style="clip-path:url(#SVGID_5_);">
				<use xlink:href="#SVGID_40_"  style="overflow:visible;"/>
			</clipPath>
		</g>
	</g>
</g>
</svg>
