<?xml version="1.0" encoding="utf-8"?>
<!-- Generator: Adobe Illustrator 18.1.1, SVG Export Plug-In . SVG Version: 6.00 Build 0)  -->
<!DOCTYPE svg PUBLIC "-//W3C//DTD SVG 1.1//EN" "http://www.w3.org/Graphics/SVG/1.1/DTD/svg11.dtd">
<svg version="1.1" id="Layer_1" xmlns="http://www.w3.org/2000/svg" xmlns:xlink="http://www.w3.org/1999/xlink" x="0px" y="0px"
	 viewBox="0 0 500 500" style="enable-background:new 0 0 500 500;" xml:space="preserve">
<style type="text/css">
	.st0{fill:#F15F4F;}
	.st1{fill:#167A97;}
	.st2{fill:none;}
	.st3{fill:none;stroke:#F15F4F;stroke-miterlimit:10;}
	.st4{fill:none;stroke:#217C97;stroke-linecap:round;stroke-miterlimit:10;}
	.st5{fill:none;stroke:#F15F4F;stroke-width:2.3;stroke-linecap:round;stroke-linejoin:round;stroke-miterlimit:10;}
	.st6{fill:none;stroke:#F15F4F;stroke-width:2.3;stroke-linecap:round;stroke-miterlimit:10;}
	.st7{fill:none;stroke:#217C97;stroke-width:2.3;stroke-linecap:round;stroke-miterlimit:10;}
	.st8{fill:#217C97;}
	.st9{fill:none;stroke:#F15F4F;stroke-linecap:round;stroke-miterlimit:10;}
	.st10{fill:none;stroke:#F15F4F;stroke-width:1.4409;stroke-linecap:round;stroke-miterlimit:10;}
	.st11{fill:#216882;}
	.st12{fill:#E25840;}
	.st13{fill:#143E4C;}
	.st14{fill:#3B9FBD;}
	.st15{fill:#1C5368;}
	.st16{fill:#CC4C37;}
	.st17{fill:#D5533B;}
	.st18{fill:#F06A4A;}
	.st19{fill:none;stroke:#167A97;stroke-width:3;stroke-miterlimit:10;}
	.st20{fill:none;stroke:#F15F4F;stroke-width:3;stroke-linejoin:round;stroke-miterlimit:10;}
	.st21{fill:none;stroke:#F15F4F;stroke-width:3;stroke-linecap:round;stroke-miterlimit:10;}
	.st22{fill:#F05144;}
	.st23{opacity:0.5;}
	.st24{fill:#FFFFFF;}
	.st25{fill:none;stroke:#F05144;stroke-width:0.9856;stroke-miterlimit:10;}
	.st26{fill:#FFFFFF;stroke:#F05144;stroke-width:1.3141;stroke-miterlimit:10;}
	.st27{opacity:0.49;}
	.st28{fill:none;stroke:#F05144;stroke-width:1.9711;stroke-miterlimit:10;}
	.st29{opacity:0.51;}
	.st30{fill:none;stroke:#7E2419;stroke-width:1.3141;stroke-linecap:round;stroke-linejoin:round;stroke-miterlimit:10;}
	.st31{opacity:0.52;}
	.st32{fill:url(#SVGID_4_);}
	.st33{opacity:0.3;fill:url(#SVGID_5_);enable-background:new    ;}
	.st34{opacity:0.3;fill:url(#SVGID_6_);enable-background:new    ;}
	.st35{opacity:0.3;}
	.st36{fill:url(#SVGID_7_);}
	.st37{fill:url(#SVGID_8_);}
	.st38{opacity:0.3;fill:url(#SVGID_9_);enable-background:new    ;}
	.st39{opacity:0.3;fill:url(#SVGID_10_);enable-background:new    ;}
	.st40{fill:url(#SVGID_11_);}
	.st41{fill:url(#SVGID_12_);}
	.st42{opacity:0.3;fill:url(#SVGID_13_);enable-background:new    ;}
	.st43{opacity:0.3;fill:url(#SVGID_14_);enable-background:new    ;}
	.st44{fill:url(#SVGID_15_);}
	.st45{fill:#F15F4E;}
	.st46{clip-path:url(#SVGID_17_);}
	.st47{fill:none;stroke:#399DBB;stroke-width:2.5;stroke-linecap:round;stroke-linejoin:round;stroke-miterlimit:10;}
	.st48{fill:#EB4D26;}
	.st49{fill:none;stroke:#EB4D26;stroke-width:0.5;stroke-linecap:round;stroke-linejoin:round;stroke-miterlimit:10;}
	.st50{fill:#399DBB;}
</style>
<g>
	<circle class="st1" cx="250" cy="250" r="27.1"/>
	<g>
		<path class="st21" d="M400.9,99.1c-38.6-38.6-92-62.6-150.9-62.6S137.8,60.5,99.1,99.1"/>
		<path class="st21" d="M136.6,136.6c29-29,69.2-46.9,113.4-46.9c44.4,0,84.4,17.9,113.4,46.9"/>
		<path class="st21" d="M363.4,363.4c-29,29-69,46.9-113.4,46.9s-84.4-17.9-113.4-46.9"/>
		<path class="st21" d="M99.1,400.9c38.6,38.6,92,62.6,150.9,62.6s112.2-23.9,150.9-62.6"/>
		<path class="st21" d="M325.9,325.9c-19.5,19.5-46.2,31.5-75.9,31.5s-56.6-12-75.9-31.5"/>
		<path class="st21" d="M136.6,363.4c29,29,69,46.9,113.4,46.9s84.4-17.9,113.4-46.9"/>
		<path class="st21" d="M363.4,136.6c-29-29-69.2-46.9-113.4-46.9c-44.4,0-84.4,17.9-113.4,46.9"/>
		<path class="st21" d="M174.1,174.1c19.5-19.5,46.2-31.5,75.9-31.5s56.6,12,75.9,31.5"/>
		<path class="st21" d="M288.4,288.4c-9.9,9.9-23.5,15.9-38.4,15.9s-28.7-6-38.4-15.9"/>
		<path class="st21" d="M174.1,325.9c19.5,19.5,46.2,31.5,75.9,31.5s56.6-12,75.9-31.5"/>
		<path class="st21" d="M325.9,174.1c-19.5-19.5-46.2-31.5-75.9-31.5s-56.6,12-75.9,31.5"/>
		<path class="st21" d="M211.6,211.4c9.9-9.9,23.5-15.9,38.4-15.9c14.9,0,28.7,6,38.4,15.9"/>
	</g>
</g>
</svg>
