<?xml version="1.0" encoding="utf-8"?>
<!-- Generator: Adobe Illustrator 18.1.1, SVG Export Plug-In . SVG Version: 6.00 Build 0)  -->
<!DOCTYPE svg PUBLIC "-//W3C//DTD SVG 1.1//EN" "http://www.w3.org/Graphics/SVG/1.1/DTD/svg11.dtd">
<svg version="1.1" id="Layer_1" xmlns="http://www.w3.org/2000/svg" xmlns:xlink="http://www.w3.org/1999/xlink" x="0px" y="0px"
	 viewBox="0 0 500 500" style="enable-background:new 0 0 500 500;" xml:space="preserve">
<style type="text/css">
	.st0{fill:#F15F4F;}
	.st1{fill:#167A97;}
	.st2{fill:none;}
	.st3{fill:none;stroke:#F15F4F;stroke-miterlimit:10;}
	.st4{fill:none;stroke:#217C97;stroke-linecap:round;stroke-miterlimit:10;}
	.st5{fill:none;stroke:#F15F4F;stroke-width:2.3;stroke-linecap:round;stroke-linejoin:round;stroke-miterlimit:10;}
	.st6{fill:none;stroke:#F15F4F;stroke-width:2.3;stroke-linecap:round;stroke-miterlimit:10;}
	.st7{fill:none;stroke:#217C97;stroke-width:2.3;stroke-linecap:round;stroke-miterlimit:10;}
	.st8{fill:#217C97;}
	.st9{fill:none;stroke:#F15F4F;stroke-linecap:round;stroke-miterlimit:10;}
	.st10{fill:none;stroke:#F15F4F;stroke-width:1.4409;stroke-linecap:round;stroke-miterlimit:10;}
	.st11{fill:#216882;}
	.st12{fill:#E25840;}
	.st13{fill:#143E4C;}
	.st14{fill:#3B9FBD;}
	.st15{fill:#1C5368;}
	.st16{fill:#CC4C37;}
	.st17{fill:#D5533B;}
	.st18{fill:#F06A4A;}
	.st19{fill:none;stroke:#167A97;stroke-width:3;stroke-miterlimit:10;}
	.st20{fill:none;stroke:#F15F4F;stroke-width:3;stroke-linejoin:round;stroke-miterlimit:10;}
	.st21{fill:none;stroke:#F15F4F;stroke-width:3;stroke-linecap:round;stroke-miterlimit:10;}
	.st22{fill:#F05144;}
	.st23{opacity:0.5;}
	.st24{fill:#FFFFFF;}
	.st25{fill:none;stroke:#F05144;stroke-width:0.9856;stroke-miterlimit:10;}
	.st26{fill:#FFFFFF;stroke:#F05144;stroke-width:1.3141;stroke-miterlimit:10;}
	.st27{opacity:0.49;}
	.st28{fill:none;stroke:#F05144;stroke-width:1.9711;stroke-miterlimit:10;}
	.st29{opacity:0.51;}
	.st30{fill:none;stroke:#7E2419;stroke-width:1.3141;stroke-linecap:round;stroke-linejoin:round;stroke-miterlimit:10;}
	.st31{opacity:0.52;}
	.st32{fill:url(#SVGID_4_);}
	.st33{opacity:0.3;fill:url(#SVGID_5_);enable-background:new    ;}
	.st34{opacity:0.3;fill:url(#SVGID_6_);enable-background:new    ;}
	.st35{opacity:0.3;}
	.st36{fill:url(#SVGID_7_);}
	.st37{fill:url(#SVGID_8_);}
	.st38{opacity:0.3;fill:url(#SVGID_9_);enable-background:new    ;}
	.st39{opacity:0.3;fill:url(#SVGID_10_);enable-background:new    ;}
	.st40{fill:url(#SVGID_11_);}
	.st41{fill:url(#SVGID_12_);}
	.st42{opacity:0.3;fill:url(#SVGID_13_);enable-background:new    ;}
	.st43{opacity:0.3;fill:url(#SVGID_14_);enable-background:new    ;}
	.st44{fill:url(#SVGID_15_);}
	.st45{fill:#F15F4E;}
	.st46{clip-path:url(#SVGID_17_);}
	.st47{fill:none;stroke:#399DBB;stroke-width:2.5;stroke-linecap:round;stroke-linejoin:round;stroke-miterlimit:10;}
	.st48{fill:#EB4D26;}
	.st49{fill:none;stroke:#EB4D26;stroke-width:0.5;stroke-linecap:round;stroke-linejoin:round;stroke-miterlimit:10;}
	.st50{fill:#399DBB;}
</style>
<g>
	<g>
		<path class="st1" d="M245.5,480.6h-53.2c-1,0-2.3-0.3-2.9-1.3L94.6,378.4c-0.6-0.6-1-1.6-1-2.9l0.6-55.8c0-1.6,1-2.9,2.6-3.6
			c1.6-0.6,3.2-0.3,4.2,1l147.3,156.8c1,1.3,1.3,2.9,0.6,4.2C248.8,479.6,247.1,480.6,245.5,480.6z M194.2,472.5h42.2L102.1,329.7
			l-0.6,44.5L194.2,472.5z"/>
	</g>
	<g>
		<path class="st1" d="M254.3,167.4c-1.9,0-3.9-1.6-3.9-3.9c0-2.3,1.6-3.9,3.9-4.2c1,0,84.1-4.2,154.8-42.8
			c14.9-8.1,21.7-19.8,19.8-33.1c-3.2-22.7-31.2-48.4-59.7-54.5c-12-2.6-33.8-3.9-47.4,17.2c-1.3,1.9-3.6,2.3-5.5,1.3
			c-1.9-1.3-2.3-3.6-1.3-5.5c12-18.5,31.8-26,55.8-20.8c32.1,7.1,62.3,35.1,65.9,61c2.3,16.9-6.2,31.5-24,41.2
			C340.3,163.2,255.3,167.1,254.3,167.4L254.3,167.4z"/>
	</g>
	<g>
		<path class="st47" d="M318.2,44.1"/>
	</g>
	<g>
		<path class="st1" d="M245.5,167.4L245.5,167.4c-1,0-86-4.2-158.4-43.8c-17.9-9.7-26.3-24.3-24-41.2c3.9-26.3,34.1-54.2,65.9-61
			c24-5.2,43.8,2.3,55.8,20.8c1.3,1.9,0.6,4.2-1.3,5.5c-1.9,1.3-4.2,0.6-5.5-1.3c-13.6-21.1-35.7-19.8-47.4-17.2
			c-28.6,6.2-56.5,31.8-59.7,54.5c-1.9,13.6,4.9,25,19.8,33.1c71.1,38.6,154.2,42.8,154.8,42.8c2.3,0,3.9,1.9,3.9,4.2
			C249.4,165.4,247.8,167.4,245.5,167.4z"/>
	</g>
	<g>
		<path class="st0" d="M410.7,480.6H97.5c-2.3,0-3.9-1.6-3.9-3.9V163.5c0-2.3,1.6-3.9,3.9-3.9h313.2c2.3,0,3.9,1.6,3.9,3.9v313.2
			C414.9,478.6,413,480.6,410.7,480.6z M101.4,472.5h305.4V167.1H101.4V472.5z"/>
	</g>
	<g>
		<path class="st1" d="M130.3,224.8c-19.1,0-40.6-2.3-64.6-7.8c-2.3-0.3-3.6-2.6-2.9-4.9c0.3-2.3,2.6-3.6,4.9-2.9
			C221.8,243,261.1,156,292.6,86.3c7.5-16.6,14.6-32.5,22.7-44.8c1.3-1.9,3.6-2.3,5.5-1.3c1.9,1.3,2.3,3.6,1.3,5.5
			c-7.8,12-14.6,27.3-22.1,43.8C273.4,148.2,238.7,224.8,130.3,224.8z"/>
	</g>
	<g>
		<path class="st1" d="M369.5,224.8c-108.4,0-143.1-76.9-169.4-135C192.6,73.6,185.8,58,178,46c-1.3-1.9-0.6-4.2,1.3-5.5
			c1.9-1.3,4.2-0.6,5.5,1.3c8.1,12.3,15.3,28.2,22.7,44.8c31.5,69.8,70.8,156.8,224.9,123c2.3-0.3,4.2,1,4.9,2.9
			c0.3,2.3-1,4.2-2.9,4.9C410.1,222.6,388.6,224.8,369.5,224.8z"/>
	</g>
</g>
</svg>
