<?xml version="1.0" encoding="utf-8"?>
<!-- Generator: Adobe Illustrator 18.1.1, SVG Export Plug-In . SVG Version: 6.00 Build 0)  -->
<!DOCTYPE svg PUBLIC "-//W3C//DTD SVG 1.1//EN" "http://www.w3.org/Graphics/SVG/1.1/DTD/svg11.dtd">
<svg version="1.1" id="Layer_1" xmlns="http://www.w3.org/2000/svg" xmlns:xlink="http://www.w3.org/1999/xlink" x="0px" y="0px"
	 viewBox="0 0 251.8 230.3" style="enable-background:new 0 0 251.8 230.3;" xml:space="preserve">
<style type="text/css">
	.st0{fill:url(#SVGID_1_);}
	.st1{opacity:0.3;fill:url(#SVGID_2_);}
	.st2{opacity:0.3;fill:url(#SVGID_3_);}
	.st3{opacity:0.3;}
	.st4{fill:url(#SVGID_4_);}
	.st5{fill:url(#SVGID_5_);}
	.st6{opacity:0.3;fill:url(#SVGID_6_);}
	.st7{opacity:0.3;fill:url(#SVGID_7_);}
	.st8{fill:url(#SVGID_8_);}
	.st9{fill:url(#SVGID_9_);}
	.st10{opacity:0.3;fill:url(#SVGID_10_);}
	.st11{opacity:0.3;fill:url(#SVGID_11_);}
	.st12{fill:url(#SVGID_12_);}
</style>
<g>
	<linearGradient id="SVGID_1_" gradientUnits="userSpaceOnUse" x1="161.1118" y1="245.6334" x2="73.6347" y2="101.2268">
		<stop  offset="0" style="stop-color:#E75530"/>
		<stop  offset="1" style="stop-color:#521143"/>
	</linearGradient>
	<path class="st0" d="M123.9,230.3c-1.7,0-3.4-0.1-5.1-0.3c-10.5-1.4-19.8-6.8-26.2-15.3c-6.2-8.3-8.6-18.7-7.3-28.9l0.7-5.2l0,0
		c3.8-36.7-2.6-59.7-10.9-74c-1.2-2.1,0.6-4.6,3-4c92.6,22.5,85.5,85.8,84.3,93.3l0,0.2l-0.1,0.5
		C159.9,215.7,143.4,230.3,123.9,230.3z"/>
	<linearGradient id="SVGID_2_" gradientUnits="userSpaceOnUse" x1="161.1118" y1="245.6334" x2="73.6347" y2="101.2268">
		<stop  offset="0" style="stop-color:#E75530"/>
		<stop  offset="1" style="stop-color:#521143"/>
	</linearGradient>
	<path class="st1" d="M162.5,195.9l0-0.2c1.2-7.4,8.3-70.8-84.3-93.3c-1.6-0.4-3,0.7-3.3,2.1c0.2-0.5,0.7-1,1.4-0.8
		c40.2,9.7,37.1,37.2,36.5,40.4l0,0.1l0,0.2c-1.1,8.4-8.3,14.7-16.7,14.7c-0.7,0-1.5,0-2.2-0.1c-2.4-0.3-4.7-1.1-6.7-2.4
		c0.1,7.2-0.2,15.1-1.1,23.8l-0.7,5.2c-1.3,10.2,1.1,20.7,7.3,28.9c6.3,8.5,15.7,14,26.2,15.3c1.7,0.2,3.4,0.3,5.1,0.3
		c19.4,0,36-14.6,38.5-33.8L162.5,195.9z"/>
	<linearGradient id="SVGID_3_" gradientUnits="userSpaceOnUse" x1="161.1118" y1="245.6334" x2="73.6347" y2="101.2268">
		<stop  offset="0" style="stop-color:#E75530"/>
		<stop  offset="1" style="stop-color:#521143"/>
	</linearGradient>
	<path class="st2" d="M78.2,102.4c-1.9-0.5-3.5,1.1-3.4,2.8c0.1-0.9,1-1.7,2-1.5c56.5,13.7,52.2,52.4,51.4,56.9l0,0.1l0,0.3
		c-1.5,11.8-11.6,20.7-23.5,20.7c-1,0-2.1-0.1-3.1-0.2c-5.9-0.8-11.2-3.6-15-8.1c-0.2,2.3-0.4,4.6-0.6,7l-0.7,5.2
		c-1.3,10.2,1.1,20.7,7.3,28.9c6.3,8.5,15.7,14,26.2,15.3c1.7,0.2,3.4,0.3,5.1,0.3c19.4,0,36-14.6,38.5-33.8l0.1-0.5l0-0.2
		C163.7,188.3,170.8,124.9,78.2,102.4z"/>
	<g class="st3">
		<linearGradient id="SVGID_4_" gradientUnits="userSpaceOnUse" x1="161.1119" y1="245.6334" x2="73.6348" y2="101.2267">
			<stop  offset="0" style="stop-color:#E75530"/>
			<stop  offset="1" style="stop-color:#521143"/>
		</linearGradient>
		<path class="st4" d="M78.2,102.4c-0.3-0.1-0.6-0.1-0.9-0.1c0.1,0,0.2,0,0.3,0.1c76.1,18.4,70.2,70.5,69.2,76.6l0,0.2l0,0.4
			c-2.1,15.8-15.6,27.8-31.6,27.8c-1.4,0-2.8-0.1-4.1-0.3c-8.6-1.1-16.3-5.6-21.5-12.6c-1.8-2.4-3.2-5-4.2-7.8
			c-1,9.9,1.4,19.9,7.4,27.9c6.3,8.5,15.7,14,26.2,15.3c1.7,0.2,3.4,0.3,5.1,0.3c19.4,0,36-14.6,38.5-33.8l0.1-0.5l0-0.2
			C163.7,188.3,170.8,124.9,78.2,102.4z"/>
	</g>
	
		<linearGradient id="SVGID_5_" gradientUnits="userSpaceOnUse" x1="354.1131" y1="-23.9371" x2="354.1131" y2="271.4875" gradientTransform="matrix(-0.5 -0.866 0.866 -0.5 220.1366 449.9763)">
		<stop  offset="0" style="stop-color:#0B2330"/>
		<stop  offset="1" style="stop-color:#00747F"/>
	</linearGradient>
	<path class="st5" d="M246.6,20.1c0.8,1.5,1.6,3,2.2,4.5c4.1,9.8,4,20.6-0.2,30.3c-4.1,9.5-11.9,16.8-21.4,20.8l-4.9,2l0,0
		c-33.7,15-50.4,32.2-58.6,46.4c-1.2,2.1-4.3,1.7-5-0.6C131.8,32.2,190.3,6.7,197.3,4l0.2-0.1l0.5-0.2C216-3.8,236.8,3.3,246.6,20.1
		z"/>
	
		<linearGradient id="SVGID_6_" gradientUnits="userSpaceOnUse" x1="354.1416" y1="-23.9371" x2="354.1416" y2="271.4875" gradientTransform="matrix(-0.5 -0.866 0.866 -0.5 220.1366 449.9763)">
		<stop  offset="0" style="stop-color:#0B2330"/>
		<stop  offset="1" style="stop-color:#00747F"/>
	</linearGradient>
	<path class="st6" d="M197.5,3.9L197.3,4c-7,2.7-65.5,28.2-38.6,119.6c0.5,1.6,2.1,2.3,3.5,1.8c-0.6,0.1-1.2-0.2-1.4-0.8
		c-11.6-39.7,13.7-50.7,16.7-51.9l0.1,0l0.2-0.1c7.8-3.2,16.8-0.2,21.1,7.1c0.4,0.6,0.7,1.3,1,2c0.9,2.3,1.4,4.6,1.3,7
		c6.2-3.7,13.2-7.4,21.2-10.9l4.9-2c9.5-4,17.3-11.3,21.4-20.8c4.2-9.8,4.3-20.6,0.2-30.3c-0.6-1.6-1.4-3.1-2.2-4.5
		C236.8,3.3,216-3.8,198,3.7L197.5,3.9z"/>
	
		<linearGradient id="SVGID_7_" gradientUnits="userSpaceOnUse" x1="354.1137" y1="-23.9371" x2="354.1137" y2="271.4875" gradientTransform="matrix(-0.5 -0.866 0.866 -0.5 220.1366 449.9763)">
		<stop  offset="0" style="stop-color:#0B2330"/>
		<stop  offset="1" style="stop-color:#00747F"/>
	</linearGradient>
	<path class="st7" d="M158.7,123.6c0.5,1.9,2.7,2.5,4.1,1.5c-0.9,0.4-2,0-2.3-1c-16.4-55.8,19.3-71.4,23.6-73l0.1-0.1l0.3-0.1
		c11-4.6,23.7-0.3,29.6,10c0.5,0.9,1,1.8,1.4,2.8c2.3,5.5,2.4,11.5,0.5,17.1c2-1,4.2-2,6.3-3l4.9-2c9.5-4,17.3-11.3,21.4-20.8
		c4.2-9.8,4.3-20.6,0.2-30.3c-0.6-1.6-1.4-3.1-2.2-4.5C236.8,3.3,216-3.8,198,3.7l-0.5,0.2L197.3,4
		C190.3,6.7,131.8,32.2,158.7,123.6z"/>
	<g class="st3">
		
			<linearGradient id="SVGID_8_" gradientUnits="userSpaceOnUse" x1="355.3384" y1="-23.9305" x2="355.3384" y2="271.4867" gradientTransform="matrix(-0.5 -0.866 0.866 -0.5 220.1366 449.9763)">
			<stop  offset="0" style="stop-color:#0B2330"/>
			<stop  offset="1" style="stop-color:#00747F"/>
		</linearGradient>
		<path class="st8" d="M158.7,123.6c0.1,0.3,0.2,0.6,0.4,0.8c0-0.1-0.1-0.2-0.1-0.3c-22.1-75.1,25.9-96,31.7-98.2l0.2-0.1l0.4-0.2
			c14.7-6.1,31.9-0.4,39.9,13.5c0.7,1.2,1.3,2.4,1.8,3.7c3.3,8,3.3,16.9-0.2,24.9c-1.2,2.7-2.8,5.2-4.6,7.5
			c9.1-4,16.5-11.2,20.4-20.3c4.2-9.8,4.3-20.6,0.2-30.3c-0.6-1.6-1.4-3.1-2.2-4.5C236.8,3.3,216-3.8,198,3.7l-0.5,0.2L197.3,4
			C190.3,6.7,131.8,32.2,158.7,123.6z"/>
	</g>
	
		<linearGradient id="SVGID_9_" gradientUnits="userSpaceOnUse" x1="-978.4379" y1="-714.9213" x2="-1092.9912" y2="-820.4492" gradientTransform="matrix(-0.5 0.866 -0.866 -0.5 454.8655 60.2637)">
		<stop  offset="0" style="stop-color:#F19134"/>
		<stop  offset="1" style="stop-color:#A63D3C"/>
	</linearGradient>
	<path class="st9" d="M5.2,19.5C6,18,7,16.6,8,15.3c6.4-8.4,15.8-13.8,26.4-15C44.6-0.9,54.9,2.2,63,8.4l4.2,3.2l0,0
		c29.9,21.7,53.1,27.6,69.5,27.6c2.4,0,3.6,2.9,2,4.6C73,112.8,21.7,74.9,15.8,70.2L15.7,70l-0.4-0.3C-0.2,57.9-4.6,36.3,5.2,19.5z"
		/>
	
		<linearGradient id="SVGID_10_" gradientUnits="userSpaceOnUse" x1="-978.4379" y1="-714.9213" x2="-1092.9912" y2="-820.4492" gradientTransform="matrix(-0.5 0.866 -0.866 -0.5 454.8655 60.2637)">
		<stop  offset="0" style="stop-color:#F19134"/>
		<stop  offset="1" style="stop-color:#A63D3C"/>
	</linearGradient>
	<path class="st10" d="M15.7,70l0.2,0.2c5.8,4.7,57.1,42.6,122.9-26.4c1.2-1.2,0.9-3-0.2-3.9c0.4,0.4,0.5,1.1,0,1.6
		C110,71.4,87.8,55,85.3,52.9l-0.1-0.1L85,52.7c-6.7-5.1-8.6-14.5-4.4-21.8c0.4-0.6,0.8-1.2,1.2-1.8c1.5-1.9,3.3-3.5,5.4-4.6
		c-6.3-3.5-13-7.7-20.1-12.8L63,8.4c-8.2-6.3-18.5-9.4-28.7-8.2C23.8,1.5,14.4,6.8,8,15.3c-1,1.3-2,2.8-2.8,4.2
		c-9.7,16.8-5.4,38.4,10.1,50.2L15.7,70z"/>
	
		<linearGradient id="SVGID_11_" gradientUnits="userSpaceOnUse" x1="-978.4379" y1="-714.9213" x2="-1092.9912" y2="-820.4492" gradientTransform="matrix(-0.5 0.866 -0.866 -0.5 454.8655 60.2637)">
		<stop  offset="0" style="stop-color:#F19134"/>
		<stop  offset="1" style="stop-color:#A63D3C"/>
	</linearGradient>
	<path class="st11" d="M138.7,43.8c1.3-1.4,0.8-3.6-0.8-4.3c0.8,0.5,1,1.7,0.3,2.5c-40.1,42.1-71.4,19-75,16.1L63.1,58l-0.3-0.2
		c-9.4-7.2-12.1-20.4-6.1-30.7c0.5-0.9,1.1-1.8,1.7-2.6c3.6-4.7,8.7-7.9,14.5-8.9c-1.9-1.3-3.8-2.6-5.7-4L63,8.4
		c-8.2-6.3-18.5-9.4-28.7-8.2C23.8,1.5,14.4,6.8,8,15.3c-1,1.3-2,2.8-2.8,4.2c-9.7,16.8-5.4,38.4,10.1,50.2l0.4,0.3l0.2,0.2
		C21.7,74.9,73,112.8,138.7,43.8z"/>
	<g class="st3">
		
			<linearGradient id="SVGID_12_" gradientUnits="userSpaceOnUse" x1="-978.4379" y1="-714.9213" x2="-1092.9912" y2="-820.4492" gradientTransform="matrix(-0.5 0.866 -0.866 -0.5 454.8655 60.2637)">
			<stop  offset="0" style="stop-color:#F19134"/>
			<stop  offset="1" style="stop-color:#A63D3C"/>
		</linearGradient>
		<path class="st12" d="M138.7,43.8c0.2-0.2,0.4-0.5,0.5-0.8c-0.1,0.1-0.1,0.2-0.2,0.2C85.1,99.9,43,68.8,38.2,64.9L38,64.8
			l-0.3-0.2C25,54.9,21.4,37.1,29.4,23.3c0.7-1.2,1.5-2.4,2.3-3.5c5.3-6.9,13-11.3,21.7-12.3c3-0.3,5.9-0.2,8.8,0.3
			c-8-5.8-17.9-8.7-27.8-7.5C23.8,1.5,14.4,6.8,8,15.3c-1,1.3-2,2.8-2.8,4.2c-9.7,16.8-5.4,38.4,10.1,50.2l0.4,0.3l0.2,0.2
			C21.7,74.9,73,112.8,138.7,43.8z"/>
	</g>
</g>
</svg>
